<?xml version="1.0" encoding="utf-8"?>
<!-- Generator: Adobe Illustrator 24.0.2, SVG Export Plug-In . SVG Version: 6.00 Build 0)  -->
<svg version="1.1" id="Capa_1" xmlns:serif="http://www.serif.com/"
	 xmlns="http://www.w3.org/2000/svg" xmlns:xlink="http://www.w3.org/1999/xlink" x="0px" y="0px" viewBox="0 0 1920 1080"
	 style="enable-background:new 0 0 1920 1080;" xml:space="preserve">
<style type="text/css">
	.st0{fill:#BCBCBC;}
	.st1{fill:#E6E6E6;}
	.st2{fill:#B3B3B3;}
	.st3{fill:url(#SVGID_1_);}
	.st4{fill:url(#SVGID_2_);}
</style>
<g>
	<g>
		<g id="mundo_15_">
			<ellipse id="mundo_16_" class="st0" cx="951.3" cy="905.1" rx="228.9" ry="139"/>
			<g id="relleno_8_">
				<path class="st1" d="M1025.4,1012.6c-1.6-3.1-5.1-2.5-7.6-3.8c-1.6-0.8-3.3-1.4-5.2-2.2c0.1-0.2,0.3-0.4,0.4-0.6
					c-0.7-0.1-1.4-0.3-2.2-0.4c-1.6,2.8-4.7,4.6-7,6.8c-1.3,1.2-3.8,1.7-5.7,1.6c-3.6-0.3-6.7,0.3-9.8,2c-2,1.1-4,1.3-5.8-0.9
					c-0.9-1.1-2.5-1.8-4-2.2c-2.9-0.8-3-0.7-2.1-3.4v-0.1c-0.2,0-0.4,0-0.6,0c-0.9,0.4-1.8,0.7-2.9,0.8c-0.3,1.5,0,3.3-1,4.9
					c-2.5,3.8-5.9,3.9-8.3,1.7c-3.2-3-6.1-2.6-9.4-0.6c-0.8,0.5-1.7,0.9-2.6,1c-2.8,0.4-5,1.8-6.8,3.9c-2.1,2.5-5,3.2-8.1,2.7
					c-0.2,0-0.5-0.1-0.7-0.2c-1,0.4-2.1,0.7-3.3,0.8c-0.1,0.6-0.6,1.3-1.5,1.7c-1.1,0.5-2.4,0.6-3.6,0.7c-4.2,0.1-8.5,0-12.8,0.1
					c-2.2,0.1-3.9-0.8-5.4-2.4c-0.1-0.1-0.1-0.1-0.2-0.2c-0.6,0.1-1.3,0.2-2,0.2c-0.8,0-1.6-0.1-2.3-0.2c0.3,0.3,0.6,0.6,0.9,0.8
					c0.3,0.3,0.6,0.7,0.9,1c-5.3,1.1-7.2,0.4-9.9-3.7c-1-1.6-1.9-3.3-3.1-4.6c-0.6-0.7-2-1.1-2.8-0.9c-1.2,0.3-1.2,1.4-1,2.7
					c0.2,2.2,0.1,4.5,0.1,7c-1.4,0.1-2.6-0.1-3.7-0.5c0,0.1-12.8,6.2-5.3,10.1c9.5,4.8,42.1,7.6,70,6.9c26.2-0.6,37.2,2,59.3-6.7
					c10-3.9,16.3-12.5,16.9-12.7c1.6-0.7,3.3-1.1,5-1.5c2.9-0.6,5.4-1.6,6.7-4.5c0.3-0.6,0.8-1.1,1.3-1.5c-1-0.3-2-0.8-2.9-1.4
					C1033.2,1014.6,1029.3,1013.8,1025.4,1012.6z"/>
				<path class="st1" d="M1115.8,909.8c2,0.9,5.8,3.7,7.4,5.3s8.8,4,10.6,3.6c0.2-0.1,0.4-0.1,0.5-0.2c0.6-0.2,1.1-0.5,1.7-0.9
					c0.1,0.2,0.3,0.4,0.4,0.5c0.2,0,0.4-0.1,0.7-0.1c-0.2,0-0.4,0-0.6,0.1c0.4,0,0.7-0.1,1.1-0.2c0-0.1,0-0.3,0-0.4
					c0-0.9,0-1.8-0.1-2.6c0-0.3,0.1-2.8,0.1-3c-5.7-6.2-15.8-11-26.3-11C1113.3,903.6,1112.4,908.3,1115.8,909.8z"/>
				<path class="st1" d="M1113.6,975.3c2.3-2.6,4.7-5.3,6.7-8.2c2.6-3.8,6.1-6.8,8.6-10.5c1.7-2.4,2.1-5.7,2.6-8.6
					c0.2-1.2,0.6-1.9,1.4-2.1c0-1.1,0-2.2,0-3.2c-0.1-2.4-0.8-4.7-1.6-6.9c-0.5-0.2-1.1-0.6-1.1-0.9c0.2-3.8-3.5-5.7-4.7-9.6
					c-1.6,1.7-2.5,2.8-3.4,3.8c-2.7-0.9-1.9-3-2.3-4.5c-0.3-1-0.7-1.9-1.2-2.5c-1.8-0.2-3.5-0.5-5.3-0.8c-0.4,0.3-0.9,0.6-1.3,0.9
					c-0.8,0.6-1.5,1.3-2.1,2c-3.2,3.6-7.3,6-11.3,8.5c-2,1.3-4.2,2.5-6.6,3.9c-0.1-0.1-0.2-0.2-0.2-0.4c-1.7,1.6-3.8,2.8-6.1,3.6
					c-0.1,0.1-0.2,0.2-0.3,0.3c0.1-0.1,0.1-0.1,0.2-0.2c-0.6,0.4-1.1,1-1.6,1.5c-0.1,0.8-0.3,1.6-0.5,2.4c-0.3,1.1-0.6,2.2-1.2,3.1
					c0.3,0.6,0.1,1.4-0.7,2.1c-2.4,2.3-2.5,5.2-3.3,7.9c-0.3,1.2-0.2,2.6-0.3,3.8c0,0.3,0,0.5-0.1,0.7c0.2,0.4,0.4,0.8,0.6,1.1
					c0.5,0.2,1.1,0.4,1.6,0.6c0.6,0.3,1.2,0.7,1.8,1.1c0.8,0,2,0.2,3.6,0.4c1.8,0.3,3.6,0.3,5.5,0.4c4.8,0.3,6.5,3.3,4.4,7.4
					c-0.1,0.3-0.1,0.6-0.2,1.3c4.4,4,15,0.8,14.8,0.9C1111.2,974.8,1112.4,974.9,1113.6,975.3z"/>
				<path class="st1" d="M1096.2,904.5c1.6-3.1-0.1-6.2,0-9.5c-2.1-0.6-3.6-1.8-4.8-3.4c-0.6,0.3-1.1,0.7-1.6,1l-0.1,0.1
					c0.6,0.1-0.6,2.7-3,3.9c-2.9,1.5-6,3.9-3.3,5.5c2,1.3,2.3,2,5.3,3.5C1088.6,905.9,1096.6,905.1,1096.2,904.5z"/>
				<path class="st1" d="M990.2,944.3c2.3-4.1,4.2-8,6.6-11.6c1.6-2.5,1.9-4.6,0.4-7c-1.3-2.1-3.1-2.5-4.8-0.6
					c-1.8,2-3.1,4.3-4.9,6.9c-0.4-0.4-3.3,0-3.5,0.9c-0.1,1-0.5,1.8-1.1,2.5c-0.3,0.3-0.7,0.6-1,0.7c-0.1,2.3-0.5,4.5-1.1,6.6
					c0.1,0.6,0.1,1.2-0.1,1.8c-0.1,0.3-0.1,0.5-0.1,0.8c-0.1,1.5-0.1,3-0.1,4.5c0.4,0.5,0.7,1,0.8,1.7c1-0.4,2-0.6,3.1-0.8
					C984.7,948.8,990.2,944.3,990.2,944.3z"/>
				<path class="st1" d="M1088.7,841.5c-0.1,1.5,0,3.4-0.7,5.3c-0.5,1.6,6.4-1.7,7.5-3.1c1-1.4,0.6-3.8,0.9-6.2
					c0.1,0-0.8-2.3-0.9-2.7c-0.9-0.2-0.8-2.6-1.7-4.2c-5.1-10.4-11.7-9.1-11.9-8c-0.7,3.1,7.7,7.7,6.9,12.6
					C1089.1,836.1,1088.6,840.3,1088.7,841.5z"/>
				<path class="st1" d="M1078.9,884.3c0.5-2.7,0.8-5.5,0.9-8.2V876c-0.2-0.6-0.4-1.2-0.5-1.8c-0.2-0.4-0.4-0.7-0.6-1.1
					c-0.7-1.2-1.6-2.3-2.3-3.3c2.7-3.9,1.8-5.7,4.7-5.6c2.3-2-1.1-7.1,0.6-9.6c0.5-0.7,4.2-1.8,2.9-4.4c-1.3-2.8-2.5-5.6-3.6-8.5
					c-0.3-0.8-0.2-2,0.1-2.7c0.2-0.5,0.7-1,1.3-1.2c-0.1-0.2-0.1-0.4-0.2-0.7c-0.2-0.5-0.1-1.1,0-1.6c-0.4-0.4-0.7-0.9-0.8-1.3
					c-1.2-4.1-5.3-6.1-7.4-9.5c-0.7-1.1-2.5-1.8-4-2.2c-5.6-1.9-7.9-6.5-10.6-12c0.3,0,0.5,0,0.8,0c-0.8-1-1.4-2.1-2-3.4
					c-1.8,0.3-3.7,0.4-5.9-0.6c3.6-1.6,3.2-4.3,2.7-7c-0.5-2.4-0.9-4.7-1.5-8.1c0.5,0.2,1,0.3,1.4,0.5c0-0.8-0.1-1.6-0.1-2.4
					c-4.8-1.7-9.1-4.7-14.7-6.2c1.5-0.5,2.5-1.2,3.2-1.1c2.6,0.7,5.2,1.2,7.8,2.1c-0.1-0.1-0.1-0.1-0.2-0.2c-0.9-1-1.6-2.1-2-3.1
					c-11.2-0.5-22-3.6-32.8-6.3c-5.8-1.5-11.7-2.8-17.7-3.3c-6.1-0.5-12.1-0.2-18.1-1.9c-1-0.3-1.7-1-2-1.7c-9.3,0-18.7-0.8-28-1.6
					c-0.3,1.3-1.3,2.4-3.1,2.5c-8.6,0-17.5,0.6-25.8-1.7c-0.4-0.1-0.8-0.4-1.2-0.7c-33.6,3.1-64.7,11.3-91.2,23.1
					c-0.7,1.2-1.5,2.4-2.2,3.6c-1.3,2.2-3.3,3.7-5.5,4.6c-0.4,1.2-1,2.3-1.9,3.2c-0.4,4.2-2.9,8.1-7.4,9.3c0.8-0.1,1.6-0.2,2.5-0.3
					c-1.9,3.5-5.1,4.3-7.8,5.9c-3.7,2.2-7.5,4.4-11.3,6.4c-4.4,2.2-8.4,4.7-9.2,10.1c-0.1,0.5-0.7,1.2-1.2,1.3
					c-2.3,0.5-4.5,1.7-6.9,2c-0.6,0.9-1.2,1.7-1.9,2.6c0,0,0.1,0,0.1,0.1c-0.4,0.4-0.7,0.8-1,1.2c-6.2,8.7-12.1,17.5-17.5,26.5
					c-0.1,0.8-0.7,1.4-1.1,2c-0.2,0.4-0.4,0.7-0.6,1.1c-0.2,0.6-0.1,1.2,0.5,2.1c1.2-1.4,2.1-0.8,3.3-1.9c2.6-2.5,2.6-2.5,3.4-3
					c0.3,0.9-0.2,1.5-0.1,2.4c0.1,0.9-0.5,1.8-0.6,2.7c-0.2,2.8-0.4,5.6-0.2,8.4c0.1,1.3,0.7,2.8,1.5,3.8c0.6,0.7,1.1,1.5,1.3,2.2
					c1.9,0.3,3.8,1.1,5.4,2.2c2.2,1.4,4.1,3.1,5.9,5c1,0.2,1.9,0.8,2.7,1.4c3.1,2.8,6.1,5.7,9.2,8.6c0.5,0.4,0.9,1.1,1.4,1.2
					c3.1,0.7,3.2,3,2.9,5.4c-0.4,2.9-0.2,10.9,0,13.2c0.1,1.2,0,2.5,0.2,3.7c0.6,4,2.3,7.6,5.7,9.9c2.8,1.9,3.5,4.3,3.8,7.4
					c1,1,1.8,2.1,2.4,3.4c1.5,0,2.8,0.7,4,1.9c6.4,6,10.7,13.4,15.1,20.7c0.5,0.8,0.6,1.9,0.8,2.8c-0.2,0-0.4,0-0.5,0
					c0.6,0.8,1,1.6,1.3,2.5h1c1.1,1.6,2.8,3.6,4,5.9c2.5,4.8,9.1,10.5,11.2,15.7c0.5,0.4,0.9,0.8,1.4,1.2c0.1,0.1,0.1,0.1,0.1,0.1
					s0.1,0,0.1,0.1c0.1,0,0.1,0.1,0.2,0.1c1.6,0.8,3.8,1.5,5,2.3c2.7,1.3,5.4,2.9,8,4.5c4.4-1.7,6.9,3.2,10.9,2v-2.8
					c0.4-0.1,0.6-0.2,0.8-0.3c-0.1-0.9-0.3-1.8-0.6-2.7c-0.8,0.2-1.6,0.4-2.4,0.4c-1.1,0-2.1-0.3-3.2-0.6c-1.6-0.4-0.6-1.9-1-2.6
					c-0.9-1.7-2.1-3.5-3.5-4.8c-2-2-5.7-3.8-4.5-6.9c0.6-1.5,0.1-3.4,0.3-5.1c0.2-1.6,0.7-3.2,1.1-4.9c0.1-0.4-0.3-8.1,0.7-9.8
					c2.1-3.5,1.8-7.1,1.9-10.8c0-2,0-4.1,0.2-6.1c0.1-1.1,0.5-1.8,1.1-2.3c0-1.5,0.3-2.9,0.9-4.3c1-4.5,2.1-8.8,2.9-13.1
					c0.4-2.3,0.4-4.6,0.5-6.9c0-0.6-0.4-1.3-0.3-1.8c0.1-0.5,0.8-1.3,1-1.3l0,0c-0.1-0.4-0.2-0.7-0.3-1.1c-0.8-0.1-1.6-0.3-2.4-0.7
					c-4.9,0.2-7-1.1-11.4-2.5c-1-0.3-2.2-0.4-3.2-0.8c-1-0.4-4.6-0.8-4.9-1.6c-1-2.5-2.7-4.4-4.7-6.2c-0.7-0.6-1.1-1.9-1.3-2.9
					c-0.5-1.8-0.7-3.7-1.1-5.5c-2.8-1.3-5.8-0.8-8.5-0.5c-3.6,0.5-9-2.3-12-4.3c-0.9-0.6-2.1-0.6-3-1.1c-0.4-0.2-1,1.2-0.9,0.8
					c0-0.2,0.2-0.5,0.4-0.7h-0.1c-0.8-0.1-1.7-0.1-2.5-0.2c0,0.1,0,0.1,0,0.2c-3.8,1.8-6.8,2.6-10.6,4.4c-4.1,1.9-7.5-1.7-8.7-6.6
					c0.1,0,0.2,0,0.3,0c-0.1-0.2-0.2-0.4-0.3-0.6c-0.2-0.6-0.2-1.2,0-1.7c0.1-0.3,0.2-0.5,0.3-0.8c0.1-0.1,0.2-0.2,0.3-0.3
					c-0.1-0.4-0.2-0.9-0.1-1.4c0.2-0.9,0.7-1.7,0.9-2.6c0.5-2.6-0.1-3.3-2.8-4.3c-2.6-0.9-2.5-1-1.8-3.6c0.5-1.8,0.8-3.6,1-5.5
					c0.3-2.9,4.5-2.2,6-2.6c1.3-0.4,7.1,2.6,10.1,3.4c0.3,0,2.3,0.4,2.6,0.4c0.4-1.1,0.9-1.1,1.2-2.2c0.7-3.1-1-4.7,2.1-4.2
					c0.3,0,0.6-2.5,0.8-2.5c2.5-2.9,4.5-5.1,8.1-6.5c5.5-4.2,5.4-3.2,9.3-5.1c2.6-1.2,2.8-4.5,5-6.5c1.2-1,2.3-1.5,3.9-0.9
					c1.9,0.8,3.5,0.3,5.4-0.5s4.2-0.7,6.4-0.9c2.1-0.2,4.3,0.1,3.9-3.2c-0.1-0.5,0.8-1.2,1.4-1.6c0.3-0.2,0.9-0.1,1.4-0.1
					c1.6,0.1,3.2,0.2,4.9,0.3c0.1-0.6,0.3-1.2,0.5-1.7c0.2,0,0.8-0.1,1-0.1c0.2-1.3,0.7-5,1.2-5.9c2.6-4.9,2.8-6,6.9-10.1
					c1.7-1.7,2.6-5.1,3.9-7.2c1.2-2,1.1-1.8,2.1-1.2c0.1-0.2,0.2-0.3,0.3-0.5c0.1-0.6,0.1-1.3,0.1-1.9c0-0.6,0.2-1.1,0.4-1.6
					c-0.1,0-0.2,0-0.3,0c1.2-2.4,4.4-5,4.7-7c0.5-2.7,0.8-1.8,2.5-2.8c1.1-0.7,3-1.9,3.8-3c0.9-1.3,1.9-3.1,1-4.4
					c-1-1.4-3.5-2.6-4.8-2.2c-2.6,0.9-19.2,3.1-23.7,3.9c-1.1,0.2-9.6,2.1-10.4,2.6c-4.1,2.6-8,5.5-13.4,5.8
					c0.8-2.3,2.3-2.4,3.9-2.4c3.8,0.2,6.4-1.7,8.8-4.3c1.1-1.2,2.7-1.9,4.3-2.6c3.4-1.6,6.9-2.9,10.2-4.5c4.8-2.3,9.4-5.1,15.1-4.4
					c0.8,0.1,1.6,0,2.3,0.3c0.6,0.3,1.2,1,1.4,1.6l0,0c0.2,0.3,0.3,0.5,0.4,0.8c0,0.3,0.1,0.6,0.1,0.9c0,0.5-0.1,0.9-0.3,1.3
					c-0.1,0.2-0.1,0.3-0.2,0.5c1-0.5,2-1,3.1-1.2c3.4-0.7,4,3.5,6.2,5c0.5,0.3,0.8,0.9,1.4,1.6c-2,3.9-2.6,8.3-5.3,12
					c-1.4,1.9-2.8,2.7-4.7,2.9c0.2,0.4,0.3,0.8,0.3,1.2c0,0.5,0,0.9-0.1,1.4c0.7,1.3,1.4,2.4,1.8,3.5c0.9,0.2,1.9,0.4,2.8,0.6
					c0.8,0.2,1.5,0.4,2.3,0.6c0.4-0.1,0.9-0.1,1.3-0.1c3.7,0.2,6.6-0.9,9.1-3.8c0.8-0.9,2.5-1.3,3.8-1.6c1.6-0.3,1.8,1.3,2.5,2.3
					c0.3,0.4,1.6,0.5,2.2,0.2c0.5-0.2,0.8-1.1,1.6-2.4c1.1,3.9,0.5,6.2-1.8,8.2c-1.1,0.9-2.9,2.1-1.7,3.8c1,1.4,2.8,0.8,4.3,0.1
					c2.9-1.3,3-1.3,4.6,1.4c0.5,0.8,0.9,1.6,1.8,3.1c0.6-1.6,1-2.4,1.2-3.4c0.2-1.7,0.2-3.4,0.4-5.1c0.4-4.3,2.8-6.7,7.6-7.3
					c-0.6,1.5-1.1,2.8-1.7,4.1c-0.5,1.1-2.3,2.2,0.1,3.3c0.1,0.1,0.1,0.6,0,0.9c-0.6,4.3-1.2,8.6-1.9,12.9c-0.4,2.6-4.3,4.7-6.9,3.9
					c0,0.8-0.1,1.5-0.3,2.2c1.2-0.1,2.1,0,2.4,1.4c0.3,1.4-0.5,2.4-2,2.7c-0.8,0.2-1.6,0.3-2.3,0.5c-0.2,0.1-0.5,0.2-0.7,0.3
					c-0.3,0.3-0.6,0.6-1,0.9c-1.3,4-4.5,7.7-1.9,12.6c-3.2,0.9-5.4,2.9-7.4,5.3c-0.8,0.9-1.5,1.8-2.7,1.6c-0.3,0.7-0.7,1.4-1.1,2
					c0.4,0,0.8,0,1.3,0c-0.8,1.6-1.2,3-1.9,4.1c-2.5,4-5.1,7.8-7.5,11.8c-0.6,1-0.9,2.3-1,3.5c-0.1,1.8,0.1,3.7,0.2,5.7h-1.3
					c0.3,1,0.4,2,0.4,3h1.1c2.6,6.7,8.6,7.9,15.1,8c2.7,0,5.4,0.1,8,0c0.7,0,1.4,0.1,2,0.3c2.7,0.1,4.9,1.1,6.5,2.5
					c1.7,0.5,3.4,1.1,4.7,2.1c1.7,1.3,2.6,3.7,3.7,5.7c0.4,0.8,0.5,1.8,0.7,2.7c0.3,1.4,0.3,2.2-0.1,2.7c0.5,1.3,0.8,2.6,0.9,4
					c0.4,0.4,0.7,0.8,0.8,1.2c1.1,3.4,2.3,6.8,2.6,10.3s0.4,6.8,2.4,9.8c0.4,0.6,0.3,1.4,0.4,1.9H936c1.2,1,2.2,2.3,2.8,3.8
					c0.3,0.2,0.6,0.5,0.7,0.8c1.1,2.1,1.7,4.4,2.6,6.5c1,2.1,2,4.2,3.3,6s3.1,2,5,0.7s3.7-2.8,5.5-4.2c0.9-0.6,1.9-1.3,2.8-1.4
					c2.4-0.1,4.2-0.6,4.8-3.4c0.4-1.6,1.6-3,2.7-4.3c0.2-0.3,0.5-0.5,0.9-0.8c0.3-0.9,0.6-1.8,1.1-2.6c0.3-0.5,0.6-0.9,1-1.3
					c0.5-1.2,0.9-2.4,1.4-3.5c1.1-2.2,2.1-4.6,3.6-6.5c1.7-2.3,2.2-4.8,2.1-7.5c0-1.1,0-2.2,0-3.3c0.2-2.7,1.1-3.5,3.5-3.2
					c0.5-0.8,1.1-1.5,1.8-2c0.2-0.5,0.5-0.9,0.8-1.3c1.1-1.6,2.3-3,3.6-4.4c0.5-0.9,1-1.7,1.7-2.4c-0.1-2.7,0.3-4.8,2.9-6.9
					c2.2-1.8,3.3-5.1,4.6-7.9c0.6-1.2,1.2-1.8,2.1-2c-0.1-0.8-0.1-1.7-0.1-2.5h-0.1c-2.3,0-4.7-0.3-7-0.7c-0.8-0.1-2.1-0.7-2.2-1.2
					c-0.2-0.9,0.1-2.3,0.8-2.8c1.7-1.3,3.7-2.4,5.7-3.3c2.4-1.1,5-2,7.5-2.8c2-0.6,2.7-1.7,2.8-3.7c0.2-4.5,0-5.1-4.2-6.4
					c-2-0.7-3.8-1.5-4.8-3.7c0.7-0.3,1.4-1,2-0.9c3.1,0.2,6.8-0.4,9.2,1c3.7,2.1,7.9,3.6,10.8,7.2c3,3.8,5.3,8.7,8.6,12.2
					c1.6,1.7,3.2,3.5,2.6,6c-0.4,0-0.8,0-1.2,0c0.1,0.1,0.2,0.2,0.3,0.3c0.1,0,0.2,0,0.2,0c0.9,0,1.7,0.4,2.3,1
					c0.5,0.5,0.8,1.1,0.9,1.8c0.7,0.3,1.3,1.1,2.2,2.4c0.3,0.5,0.5,1.1,0.8,1.7c0.7-0.4,1.2-0.7,2-1.1c0.1,0.1,0.1,0.3,0.1,0.4
					c0.2-0.1,0.5-0.3,0.7-0.3c0.4-0.1,0.9-0.1,1.4-0.1c0-0.2,0-0.4-0.1-0.6c-0.3-1.3,0.1-2.1,1.1-2.5c0.2-0.8,0.4-1.5,0.7-2.3
					c0.1-0.1,0.2-0.3,0.3-0.4c-0.8-0.3-1.1-1.1-1-2.1c0.5-4.3,2.7-10.1,5.3-13.6c1.1-1.5,2.7-3,5.2-2.4c2.4,0.6,5.1,0.6,7.2,1.7
					c1.6,0.8,2.8,5.9,3.1,7.5c0.7,3.2,2.8,2.6,4.9,5c0.4,0.5,0.5,1.3,0.9,2.4c-0.5,0-1.1-0.1-1.6-0.1c0.3,0.6,0.7,1.2,0.9,1.9
					c0.1,0.2,0.1,0.4,0.2,0.6c0.4-0.1,0.8-0.1,1.2-0.1c2.2,0,3.6,0.8,4.7,2.5c0.7,1.1,1.7,2,2.9,3.5c0-0.5,0.1-2.6,0.2-4.1
					c-0.1-0.1-0.2-0.1-0.3-0.2c-0.6-0.6-0.9-1.5-1-2.3c0-0.5,0.1-0.9,0.3-1.4c-0.3,0-0.5,0.1-0.8,0.1c-2,0.2-5.5-2.8-5.9-4.7
					c-0.3-1.5,1.2-2.8,2.6-2.1c1.6,0.7,3,1.8,4.5,2.5C1077.3,887.3,1078.5,886.8,1078.9,884.3z M921.4,779c4.5-6,12.1-5.3,18.2-8.4
					c-0.6,1.6-1,3.2-1.8,4.7c-1.5,2.6-3.5,4.1-6.9,3.8C927.8,778.8,924.7,779,921.4,779z M927.4,813.7c0.1-0.6,0-1.3,0.2-1.9
					c0.6-2.2,1.5-2.8,3.8-2.5c0.6,0.1,1.2,0.4,1.8,0.5c0.7,0.2,1.5,0.3,2.9,0.6c-1.3,1.9-2.1,3.7-3.4,4.8c-1.4,1.2-2.3,2.5-2.4,4.3
					c-0.2,2.8-2.1,5.3-1.1,8.5c0.6,2-2.5,3.9-6,4.1C926.6,826.4,926,819.8,927.4,813.7z M946.2,857.2c-0.7,0.3-1.6,0.7-2.2,0.4
					c-3.5-1.5-7.7-1-10.9-3.8c-1.4-1.2-3.7-1.3-5.7-1.6c-1.9-0.3-4-0.1-6.2-0.1c0-3.9,2.6-6.1,5.2-8.1c1.4-1.1,3.2-0.3,3.9,1.2
					c1.5,3.2,1.5,3.2,5.3,5.5c1-0.7,2.2-1.5,3.2-2.2c2.7,2,5.3,3.8,7.7,5.6C947.5,855,947.4,856.6,946.2,857.2z M970.2,795.4
					c-0.5,1.1-2.9,0.6-4-0.9c-1.2-1.6-2.2-3.4-3.4-5c-0.9-1.2-2.7-0.8-2.8,0.6c-0.2,1.9,0.1,4,0.4,5.9c0.1,0.9,0.9,1.6,1.2,2.5
					c1.6,4.1,1,4.7-3,6.8c-4.8,2.5-9.6,2.4-14.6,1.4c-1.2-0.2-2.5,0-3.7,0.2c-1.7,0.3-3.4,0.7-4.8-0.7c3.9-4.6,7.6-8.7,11.1-13
					c3.4-4.3,7.9-7.3,12.4-10.3c4.4-2.9,8.3-0.9,9,4.3c0.2,1.5,0.2,2.8,1.8,3.5c0.3,0.1,0.6,0.4,0.6,0.7
					C970.5,792.8,970.7,794.3,970.2,795.4z"/>
				<path class="st1" d="M1134.5,965.5c0,0-9.5,3.4-8.5,10.4c0,0,0.1,2.8,4.2,2.4c4.1-0.4,6.8-3.2,7.2-5.5
					C1137.9,970.4,1138.5,965.5,1134.5,965.5z"/>
				<path class="st1" d="M1121.7,976.7c0,0-7.7,3.4-11.6,6.5c-3.9,3.2-5.5,5.1-3,5.1c2.6,0,6.7,0,8.5,0s6.7-1,7.3-2.2
					c0.6-1.2,3-3.2,2.2-5.7C1124.3,977.9,1125.5,978.1,1121.7,976.7z"/>
				<path class="st1" d="M1072.4,897.8c0,0-4.3-2.4-6-2.3c-1.7,0.1-4.4,0.2-4.4,1.1c0,0.9,1,4.2,1.6,5.2s8.3,6,9.9,6.7s2.8,0,2.8,0
					s0.2-8.6-0.4-9.1C1075.1,899,1072.4,897.8,1072.4,897.8z"/>
				<path class="st1" d="M1070.5,818.5c2.2,0.4,6.1,1.4,7.1,0V812c0,0-4.3-4.5-7.1-3.2C1067.7,810.2,1068.3,818.1,1070.5,818.5z"/>
				<path class="st1" d="M811.4,877.4c0,0-8.5,2.2-10.8,2c-2.4-0.2,0,4.1,1.4,4.1s5.9,1.7,6.3,2.9c0.4,1.2,3.7,0.3,5.9,0
					s7.1-1.1,7.1-1.1S814.1,876.7,811.4,877.4z"/>
				<path class="st1" d="M1103,889c-1-2.6,0.4-2.4,2.4-3.3c2-1-1.4-3-1.4-3c-6.7-0.6-4.3,5.1-4.3,6.3S1104,891.6,1103,889z"/>
				<path class="st1" d="M1092.4,878.6c0.6-3.4,0-8.3,0-9.7s-0.2-4.1-4.3,0c0,0-2,2.6-2,3.5s1,6.1,1,6.1S1091.8,881.9,1092.4,878.6z
					"/>
				<path class="st1" d="M1079.6,908.8c-1.6,0.9-1.7,2.5-1.7,2.5s2.6,3.9,5.1,4.5s3.2,0.2,2-2.3
					C1083.7,911.1,1081.1,908,1079.6,908.8z"/>
			</g>
			<g id="contorno_8_">
				<path class="st2" d="M843,807.6l0.1-0.7l-1.1-0.3c-0.5,1.7-1,3.3-1.4,4.9l-1.1,4.4l2.1-4C842.4,810.6,842.7,809.1,843,807.6z"/>
				<path class="st2" d="M1037.6,1013.7l-0.2-0.1h-0.2c-4.2,0.5-8.3-0.5-11.5-1.4c-1.2-2.1-3.2-2.6-5-3c-1-0.2-1.9-0.4-2.7-0.9
					c-1.1-0.6-2.3-1-3.5-1.5c-0.4-0.1-0.7-0.3-1.1-0.4l0.5-0.7l-3.4-0.7l-0.2,0.3c-1.1,1.9-2.8,3.3-4.5,4.7c-0.8,0.6-1.6,1.3-2.4,2
					c-1.2,1.1-3.6,1.5-5.3,1.4c-3.9-0.3-7.1,0.4-10.2,2.1c-2.1,1.2-3.7,0.9-5.1-0.8c-1.1-1.4-3.1-2.1-4.3-2.4l-0.4-0.1
					c-1-0.3-1.7-0.5-1.8-0.7s0.2-1.1,0.5-2l0.3-0.7l-1.5-0.1l-0.1,0.1c-0.8,0.4-1.7,0.6-2.7,0.8l-0.4,0.1l-0.1,0.4
					c-0.1,0.5-0.2,1.1-0.2,1.6c-0.1,1.1-0.1,2.1-0.8,3.1c-1.1,1.7-2.5,2.7-4,2.9c-1.2,0.1-2.4-0.3-3.4-1.3c-3.8-3.6-7.2-2.4-10-0.7
					c-0.6,0.3-1.5,0.8-2.4,0.9c-2.8,0.4-5.1,1.7-7.1,4.1c-1.9,2.2-4.4,3-7.6,2.5c-0.2,0-0.3-0.1-0.6-0.2l-0.2-0.1l-0.2,0.1
					c-1,0.4-2,0.6-3.2,0.7h-0.4l-0.1,0.4c-0.1,0.5-0.5,0.9-1.2,1.2c-0.9,0.4-2,0.6-3.4,0.6c-2,0-4,0-6.1,0.1c-2.2,0-4.5,0-6.7,0.1
					c-2,0-3.5-0.6-4.9-2.2l-0.4-0.4h-0.3c-1.5,0.2-2.8,0.2-4.1,0l-1.9-0.4l1.9,1.7c0.2,0.2,0.3,0.3,0.5,0.5c0.1,0.1,0.2,0.2,0.3,0.3
					c-4.4,0.8-6,0-8.4-3.6c-0.3-0.5-0.6-0.9-0.9-1.4c-0.7-1.1-1.4-2.3-2.3-3.3c-0.7-0.8-2.3-1.3-3.4-1.1c-1.8,0.4-1.6,2.2-1.5,3.3
					c0.2,1.5,0.1,3.1,0.1,4.7c0,0.5,0,1.1,0,1.6c-1,0.1-1.9-0.2-2.9-0.5l-1-0.3l0.2,0.6l0,0c-5.1,2.8-7.6,5.3-7.6,7.5
					c0,1.3,0.9,2.4,2.7,3.3c9,4.6,37.6,7,62.2,7c2.7,0,5.4,0,8-0.1c5.9-0.1,11.1-0.1,15.7-0.1c16,0.1,26.6,0.1,43.9-6.6
					c8.3-3.3,14-9.6,16.2-11.9c0.3-0.4,0.7-0.8,0.7-0.8c1.3-0.6,2.9-1,4.8-1.5c2.8-0.6,5.6-1.6,7.1-4.8c0.2-0.5,0.7-0.9,1.2-1.3
					l0.7-0.6l-0.9-0.3C1039.3,1014.7,1038.4,1014.2,1037.6,1013.7z M1038.4,1016.8c-1.2,2.6-3.4,3.6-6.3,4.2c-2,0.4-3.7,0.9-5.1,1.5
					c-0.2,0.1-0.4,0.3-1.1,1.1c-2.1,2.3-7.7,8.5-15.8,11.6c-17.1,6.7-27.6,6.6-43.5,6.6c-4.6,0-9.8,0-15.7,0.1
					c-29.6,0.7-60.9-2.4-69.7-6.8c-1.4-0.7-2.1-1.5-2.1-2.4c0-1.2,1.2-3.3,7-6.5c0.1,0,0.1-0.1,0.2-0.1c1.3,0.4,2.4,0.6,3.6,0.5h0.5
					v-0.5c0-0.7,0-1.4,0-2.1c0-1.7,0.1-3.3-0.1-4.9c-0.2-1.5,0-1.9,0.6-2.1c0.7-0.1,1.9,0.2,2.3,0.7c0.8,0.9,1.5,2,2.2,3.1
					c0.3,0.5,0.6,1,0.9,1.4c2.8,4.2,4.9,5.1,10.4,3.9l0.9-0.2l-0.6-0.7c-0.1-0.1-0.2-0.2-0.3-0.4c-0.1-0.1-0.2-0.3-0.4-0.4
					c0.8,0,1.6,0,2.5-0.1c1.7,1.8,3.4,2.6,5.8,2.5c2.2-0.1,4.4-0.1,6.7-0.1c2,0,4.1,0,6.1-0.1c1.6,0,2.8-0.3,3.9-0.7
					c0.9-0.4,1.5-1,1.7-1.6c1-0.1,2-0.3,2.9-0.7c0.2,0.1,0.4,0.1,0.6,0.2c3.5,0.6,6.5-0.4,8.6-2.9c1.8-2.1,3.9-3.3,6.4-3.7
					c1.1-0.2,2.2-0.7,2.8-1.1c3.5-2.1,6.1-2,8.7,0.5c1.2,1.2,2.8,1.8,4.3,1.6c1.3-0.1,3.1-0.8,4.8-3.4c0.8-1.2,0.9-2.5,1-3.6
					c0-0.4,0-0.8,0.1-1.1c0.8-0.1,1.5-0.3,2.2-0.6c-0.3,0.9-0.4,1.6-0.2,2.1c0.3,0.6,1.1,0.8,2.5,1.2l0.4,0.1c1,0.3,2.8,0.9,3.7,2.1
					c1.8,2.2,3.9,2.5,6.5,1c2.9-1.6,5.9-2.2,9.5-1.9c1.9,0.1,4.7-0.3,6.1-1.7c0.7-0.7,1.5-1.3,2.3-1.9c1.7-1.4,3.4-2.7,4.6-4.6
					l0.9,0.2l-0.3,0.5l0.6,0.3c0.6,0.3,1.2,0.5,1.8,0.7c1.2,0.5,2.3,0.9,3.4,1.5c0.9,0.5,2,0.7,2.9,1c1.8,0.4,3.5,0.8,4.4,2.6
					l0.1,0.2l0.2,0.1c3.2,1,7.5,2,11.9,1.6c0.6,0.4,1.3,0.8,2.1,1.1C1038.9,1016.1,1038.6,1016.4,1038.4,1016.8z"/>
				<path class="st2" d="M1112.2,904.9c0.5,2.2,1,4.4,3.3,5.4c1.9,0.9,5.7,3.7,7.2,5.1c1.6,1.6,8,3.8,10.5,3.8c0.2,0,0.4,0,0.6-0.1
					s0.3-0.1,0.6-0.2c0.5-0.2,1-0.4,1.4-0.7c0,0,0,0.1,0.1,0.1l0.2,0.3l0.4-0.1c0.1,0,0.2,0,0.3,0h0.3l0,0c0.1,0,0.2,0,0.3-0.1
					l0.3-0.1l0.4-0.2v-0.7c0-0.9,0-1.8-0.1-2.7c0-0.1,0-0.7,0-1.4s0-1.5,0-1.7v-0.2l-0.1-0.1c-6.3-6.8-16.8-11.2-26.7-11.2h-1.1
					l0.6,0.9C1111.6,902.2,1111.9,903.5,1112.2,904.9z M1137,912.2c0,0.3,0,0.9,0,1.4c0,0.7,0,1.3,0,1.4c0,0.8,0.1,1.7,0.1,2.5
					c-0.1,0-0.2,0-0.4,0.1h-0.1c-0.1-0.1-0.1-0.2-0.2-0.3l-0.3-0.4l-0.4,0.3c-0.5,0.4-1,0.6-1.5,0.8c-0.2,0-0.4,0.1-0.5,0.2
					c-1.4,0.3-8.5-2-10.1-3.5s-5.5-4.4-7.5-5.4c-1.8-0.8-2.2-2.7-2.7-4.7c-0.3-1.1-0.5-2.2-1-3.2
					C1121.5,901.7,1131.1,905.9,1137,912.2z"/>
				<path class="st2" d="M1109.8,975.4L1109.8,975.4c1.3,0,2.5,0.1,3.7,0.4l0.3,0.1l0.8-0.9c2.1-2.4,4.4-4.9,6.2-7.6
					c1.3-1.9,2.9-3.7,4.4-5.4c1.4-1.6,2.9-3.2,4.2-5c1.6-2.3,2.1-5.4,2.6-8.2l0.1-0.7c0.2-1.3,0.7-1.6,1-1.7l0.4-0.2v-0.4
					c0-1,0-2.1,0-3.2c-0.1-2.5-0.8-4.9-1.6-7.1l-0.1-0.2l-0.2-0.1c-0.4-0.2-0.8-0.4-0.8-0.4c0.1-2.4-1.2-4.1-2.4-5.8
					c-0.9-1.2-1.8-2.4-2.3-4l-0.3-0.9l-3.8,4.2c-1.3-0.5-1.3-1.5-1.4-2.6c0-0.5-0.1-1-0.2-1.5c-0.3-1.1-0.8-2-1.3-2.7l-0.1-0.2h-0.2
					c-1.8-0.2-3.5-0.5-5.3-0.8h-0.2l-0.2,0.1c-0.4,0.3-0.8,0.6-1.3,1c-0.9,0.7-1.6,1.4-2.2,2.1c-2.7,3.1-6.3,5.4-9.8,7.6l-1.4,0.9
					c-1.4,0.9-2.8,1.7-4.3,2.6c-0.6,0.3-1.2,0.7-1.8,1l-0.3-0.5l-0.5,0.4c-1.5,1.4-3.4,2.6-5.9,3.5l-0.1,0.1c-0.1,0-0.1,0.1-0.2,0.2
					l-0.1,0.1l0,0c-0.5,0.4-0.9,0.8-1.4,1.4l-0.1,0.1v0.2c-0.2,1-0.3,1.7-0.5,2.4c-0.3,1-0.6,2-1.1,2.8l-0.2,0.2l0.1,0.3
					c0.2,0.5,0,1-0.6,1.5c-2,1.9-2.5,4.2-3,6.4c-0.1,0.6-0.2,1.2-0.4,1.7c-0.2,0.9-0.3,1.9-0.3,2.8c0,0.4,0,0.8,0,1.1s0,0.5-0.1,0.7
					v0.1l0.2,0.4c0.1,0.3,0.3,0.6,0.5,0.9l0.1,0.2l0.2,0.1c0.5,0.2,1,0.3,1.5,0.6c0.3,0.2,0.6,0.4,0.9,0.6c0.3,0.2,0.6,0.3,0.8,0.5
					l0.3,0.1c0.8,0,2,0.2,3.5,0.4c1.2,0.2,2.5,0.3,3.8,0.3c0.6,0,1.2,0,1.8,0.1c2.2,0.1,3.7,0.9,4.3,2c0.7,1.2,0.5,2.7-0.4,4.6
					c-0.1,0.3-0.2,0.5-0.2,0.9c0,0.2,0,0.3-0.1,0.6v0.3l0.2,0.2c1.6,1.4,4,2.1,7.2,2.1c2.2,0,4.7-0.3,7.6-1
					C1109.6,975.4,1109.7,975.4,1109.8,975.4z M1095.6,973.6c0-0.1,0-0.2,0-0.3c0-0.2,0-0.4,0.1-0.5c1.1-2.2,1.3-4.2,0.4-5.6
					c-0.9-1.5-2.7-2.4-5.2-2.6c-0.6,0-1.2-0.1-1.8-0.1c-1.2,0-2.4-0.1-3.6-0.3c-1.5-0.3-2.6-0.4-3.5-0.4c-0.2-0.1-0.5-0.3-0.7-0.4
					c-0.3-0.2-0.7-0.4-1-0.6c-0.5-0.3-1-0.5-1.5-0.6c-0.1-0.2-0.2-0.5-0.3-0.7v-0.1c0-0.2,0-0.4,0-0.6c0-0.4,0-0.8,0-1.2
					c0-0.9,0-1.8,0.2-2.6c0.2-0.6,0.3-1.2,0.4-1.8c0.5-2.2,0.9-4.2,2.7-5.9c0.8-0.7,1.1-1.6,0.9-2.5c0.6-0.9,0.9-1.9,1.1-3
					c0.2-0.7,0.3-1.4,0.5-2.3c0.4-0.5,0.8-0.9,1.2-1.2c0,0,0.1,0,0.1-0.1c0,0,0.1,0,0.1-0.1l0,0l0,0c0,0,0,0,0.1-0.1
					c2.3-0.9,4.2-1.9,5.7-3.2l0.2,0.3l0.5-0.3c0.8-0.5,1.5-0.9,2.2-1.3c1.5-0.9,3-1.7,4.4-2.6l1.4-0.9c3.5-2.2,7.2-4.5,10-7.8
					c0.6-0.6,1.2-1.3,2.1-2c0.4-0.3,0.7-0.6,1-0.8c1.6,0.3,3.3,0.5,4.9,0.8c0.4,0.6,0.8,1.3,1,2.1c0.1,0.4,0.1,0.8,0.2,1.2
					c0.1,1.3,0.2,3,2.5,3.7l0.3,0.1l3.1-3.4c0.6,1.3,1.4,2.4,2.2,3.4c1.2,1.6,2.3,3.1,2.2,5.1c0,0.6,0.8,1.1,1.2,1.4
					c0.7,2.1,1.4,4.3,1.5,6.6l0,0c0,0.9,0,1.9,0,2.8c-0.7,0.4-1.2,1.2-1.4,2.4l-0.1,0.7c-0.5,2.8-1,5.6-2.4,7.7
					c-1.2,1.7-2.7,3.3-4.1,4.9c-1.6,1.7-3.2,3.5-4.5,5.5c-1.8,2.6-4,5.1-6.1,7.5l-0.3,0.4c-1.1-0.3-2.3-0.4-3.6-0.4l0,0
					c-0.2,0-0.4,0.1-0.7,0.1C1101,976.2,1097.3,975,1095.6,973.6z"/>
				<path class="st2" d="M1096.8,894.6l-0.4-0.1c-1.8-0.5-3.3-1.6-4.5-3.2l-0.3-0.4l-0.4,0.2c-0.6,0.3-1.1,0.7-1.7,1.1l-1.1,0.9
					l0.8,0.1c-0.2,0.6-1.1,2.1-2.8,2.9c-1.7,0.9-4.6,2.6-4.6,4.5c0,0.5,0.2,1.3,1.3,2c0.7,0.5,1.3,0.9,1.8,1.3
					c0.8,0.6,1.6,1.3,3.3,2.2l0.4,0.2l0,0c0.4,0,7.4-0.4,8.2-1.3l0.2-0.4v-0.1c1-2,0.6-4.1,0.3-6.1c-0.2-1.1-0.4-2.2-0.3-3.3
					L1096.8,894.6z M1095.7,904.2L1095.7,904.2c-1,0.5-6,1-6.9,1l0,0c-1.7-0.9-2.5-1.5-3.3-2.1c-0.5-0.4-1.1-0.8-1.9-1.3
					s-0.8-0.9-0.7-1c0-0.9,1.6-2.3,4-3.5c2.2-1.1,3.5-3.2,3.5-4.2c0.3-0.2,0.6-0.4,0.9-0.6c1.2,1.4,2.7,2.5,4.4,3
					c0,1.1,0.2,2.1,0.4,3.1C1096.4,900.5,1096.7,902.4,1095.7,904.2z"/>
				<path class="st2" d="M980.1,945v0.2c-0.1,1.1-0.1,2.2-0.1,3.3c0,0.4,0,0.8,0,1.2v0.2l0.1,0.2c0.4,0.5,0.6,1,0.7,1.5l0.1,0.7
					l0.6-0.2c1-0.4,2-0.6,3-0.8l0.4-0.1l0.1-0.4c0.2-1.2,3.6-4.3,5.7-6l0.1-0.2c0.7-1.2,1.3-2.5,2-3.7c1.5-2.8,2.9-5.4,4.6-7.9
					c1.8-2.7,1.9-5.1,0.4-7.6c-0.8-1.3-1.7-2-2.8-2.1c-0.7-0.1-1.7,0.1-2.8,1.4c-1.2,1.4-2.3,2.9-3.4,4.6c-0.4,0.6-0.9,1.3-1.4,2
					c-0.8-0.1-1.9,0.1-2.4,0.3c-0.8,0.3-1.3,0.7-1.4,1.2c-0.1,0.9-0.4,1.6-1,2.2c-0.2,0.2-0.5,0.4-0.9,0.6l-0.3,0.1v0.3
					c-0.1,2.2-0.4,4.3-1,6.5v0.1v0.1c0.1,0.5,0.1,1.1,0,1.6C980.2,944.5,980.2,944.7,980.1,945z M981.1,948.5c0-1.1,0-2.2,0.1-3.2
					v-0.2c0-0.2,0.1-0.4,0.1-0.6c0.1-0.6,0.2-1.3,0.1-1.9c0.6-2.1,0.9-4.2,1-6.3c0.4-0.2,0.7-0.4,0.9-0.7c0.7-0.8,1.1-1.7,1.3-2.8
					c0.2-0.4,2.2-0.8,2.5-0.6l0.5,0.4l0.4-0.5c0.6-0.8,1.1-1.6,1.6-2.4c1.1-1.6,2.1-3.1,3.3-4.5c0.4-0.5,1.1-1.1,1.9-1
					c0.7,0.1,1.4,0.6,2,1.5c1.3,2.2,1.2,4.1-0.4,6.4c-1.7,2.5-3.1,5.2-4.6,8c-0.6,1.2-1.3,2.4-1.9,3.6c-0.8,0.7-5,4.2-5.8,6.2
					c-0.8,0.1-1.5,0.3-2.3,0.6c-0.1-0.4-0.3-0.8-0.6-1.2C981,949.2,981.1,948.9,981.1,948.5z"/>
				<path class="st2" d="M1088.2,835.1v0.2l0.1,0.2c0.2,0.5,0.1,2.8,0,4.1c0,0.9-0.1,1.6-0.1,2c0,0.3,0,0.6,0,0.9
					c0,1.3-0.1,2.7-0.6,4.3c-0.2,0.5,0.1,0.9,0.4,1c0.1,0.1,0.3,0.1,0.5,0.1c1.9,0,6.7-2.7,7.5-3.7c0.8-1.1,0.8-2.6,0.9-4.3
					c0-0.7,0-1.4,0.1-2.1c0.1-0.2,0-0.5-0.7-2.3c-0.1-0.4-0.2-0.7-0.3-0.8l-0.1-0.3l-0.3-0.1c-0.2-0.1-0.4-1-0.6-1.6
					c-0.2-0.7-0.4-1.6-0.7-2.3c-4.5-9.3-10-9.2-11-9c-1.1,0.1-1.8,0.6-1.9,1.2c-0.4,1.6,1.2,3.4,3,5.4
					C1086.3,830.1,1088.6,832.6,1088.2,835.1z M1084.1,822.4c1.6,0.1,5.6,1.1,9.1,8.4c0.3,0.6,0.5,1.4,0.7,2.1c0.2,1,0.5,1.9,1,2.3
					c0.1,0.2,0.1,0.4,0.2,0.6c0.2,0.5,0.5,1.4,0.6,1.7c-0.1,0.8-0.1,1.5-0.1,2.3c0,1.5,0,2.8-0.6,3.6c-0.8,1.1-5.1,3.1-6.4,3.3
					c0.5-1.6,0.5-3,0.6-4.3c0-0.3,0-0.6,0-0.9c0-0.4,0-1.1,0.1-1.9c0.1-2.1,0.2-3.7-0.1-4.4c0.4-2.9-2-5.6-4.1-8
					c-1.5-1.7-3-3.3-2.8-4.4C1082.4,822.6,1083.1,822.3,1084.1,822.4z"/>
				<path class="st2" d="M929.2,830.1c0.5-0.7,0.6-1.5,0.4-2.2c-0.5-1.9-0.1-3.5,0.5-5.2c0.3-1,0.6-2.1,0.7-3.2
					c0.1-1.5,0.8-2.7,2.2-3.9c1-0.8,1.6-1.9,2.4-3.2c0.3-0.6,0.7-1.2,1.1-1.8l0.5-0.7l-2.1-0.4c-0.7-0.1-1.2-0.2-1.6-0.3
					c-0.2-0.1-0.5-0.1-0.7-0.2c-0.4-0.1-0.7-0.2-1.2-0.3c-2.5-0.4-3.7,0.4-4.4,2.9c-0.1,0.4-0.1,0.7-0.1,1.1c0,0.3,0,0.5-0.1,0.8
					c-0.5,2.1-0.7,4.2-1,6.3c-0.5,4.1-1,8.2-3.2,12l-0.5,0.9h1C925.8,832.6,928.2,831.6,929.2,830.1z M927,820
					c0.2-2.1,0.5-4.2,1-6.2c0.1-0.3,0.1-0.7,0.1-1s0-0.6,0.1-0.8c0.4-1.6,0.9-2.2,2.2-2.2c0.3,0,0.6,0,0.9,0.1c0.3,0,0.6,0.1,1,0.3
					c0.3,0.1,0.5,0.2,0.8,0.2c0.5,0.1,1,0.2,1.7,0.3l0.5,0.1c-0.2,0.4-0.5,0.8-0.7,1.1c-0.7,1.2-1.3,2.2-2.2,2.9
					c-1.7,1.5-2.5,2.9-2.6,4.7c-0.1,1-0.4,1.9-0.7,2.9c-0.5,1.8-1.1,3.6-0.5,5.8c0.1,0.4,0,0.8-0.3,1.3c-0.7,1-2.3,1.8-4.2,2
					C926.1,827.8,926.5,823.9,927,820z"/>
				<path class="st2" d="M931.7,779.7c2.8,0,4.9-1.4,6.5-4.1c0.6-1,1-2.2,1.3-3.3c0.2-0.5,0.3-1,0.5-1.5l0.5-1.3l-1.3,0.6
					c-2.1,1.1-4.5,1.7-6.8,2.3c-4.2,1.1-8.6,2.2-11.6,6.3l-0.7,0.9h1.1c1,0,2,0,3,0c2.2-0.1,4.3-0.1,6.4,0.1
					C931.1,779.7,931.4,779.7,931.7,779.7z M924.4,778.5c-0.6,0-1.2,0-1.8,0c2.7-3,6.4-4,10.3-5c1.9-0.5,3.9-1,5.8-1.8
					c0,0.1-0.1,0.2-0.1,0.3c-0.4,1.1-0.7,2.1-1.2,3.1c-1.5,2.7-3.5,3.8-6.4,3.5c-1.2-0.1-2.4-0.2-3.7-0.2
					C926.3,778.4,925.3,778.4,924.4,778.5z"/>
				<path class="st2" d="M971,791.5c0-0.5-0.5-1-0.9-1.2c-1.1-0.5-1.2-1.3-1.4-2.7v-0.4c-0.4-2.8-1.6-4.8-3.5-5.7
					c-1.8-0.8-4.1-0.5-6.4,1c-4.6,3-9,6.1-12.5,10.4c-2.4,3-4.9,5.9-7.6,8.9c-1.2,1.3-2.4,2.7-3.6,4.1l-0.3,0.4l0.4,0.4
					c1.6,1.5,3.4,1.2,5.1,0.8h0.2c1.2-0.2,2.4-0.4,3.5-0.2c1.8,0.3,3.8,0.6,6,0.6c2.8,0,5.9-0.5,8.9-2.1c4.2-2.1,4.9-3,3.2-7.4
					c-0.2-0.4-0.4-0.8-0.6-1.1c-0.3-0.4-0.5-0.8-0.6-1.2c-0.3-1.9-0.6-3.9-0.4-5.8c0-0.4,0.3-0.7,0.6-0.8c0.4-0.1,0.9,0.1,1.2,0.5
					c0.6,0.8,1.2,1.6,1.7,2.5s1.1,1.7,1.7,2.5c0.9,1.1,2.4,1.8,3.6,1.7c0.6-0.1,1.1-0.4,1.3-0.9c0.4-1,0.4-2.1,0.3-3.2
					C971,792.1,971,791.8,971,791.5z M969.7,795.2c-0.1,0.2-0.3,0.2-0.5,0.2c-0.7,0.1-1.9-0.4-2.6-1.3c-0.6-0.8-1.2-1.6-1.7-2.5
					s-1.1-1.7-1.7-2.6c-0.6-0.8-1.5-1.1-2.4-0.8c-0.8,0.2-1.3,0.9-1.4,1.8c-0.2,2,0.1,4.1,0.4,6c0.1,0.6,0.4,1.1,0.7,1.7
					c0.2,0.3,0.4,0.6,0.5,0.9c1.4,3.8,1.1,4.1-2.7,6.1c-4,2.1-8.3,2.5-14.2,1.3c-0.4-0.1-0.8-0.1-1.1-0.1c-0.9,0-1.8,0.2-2.7,0.3
					h-0.2c-1.4,0.3-2.7,0.5-3.7-0.2c1.1-1.3,2.1-2.5,3.2-3.7c2.7-3,5.2-5.9,7.6-8.9c3.4-4.1,7.7-7.2,12.3-10.2
					c1.9-1.3,3.8-1.6,5.3-0.9c1.5,0.7,2.6,2.4,2.9,4.8v0.4c0.2,1.4,0.4,2.8,2,3.6c0.1,0.1,0.3,0.2,0.3,0.2c0,0.3,0,0.7,0,1
					C970,793.5,970.1,794.5,969.7,795.2z"/>
				<path class="st2" d="M941.3,849.7l-2.6-1.9l-3.2,2.3c-3.3-2-3.3-2.1-4.8-5.1c-0.5-1-1.3-1.7-2.3-1.9c-0.8-0.2-1.7,0-2.4,0.5
					c-2.8,2.1-5.4,4.4-5.4,8.6v0.5h0.5c0.7,0,1.4,0,2.1,0c1.4,0,2.8-0.1,4.1,0.1l0.7,0.1c1.7,0.2,3.7,0.5,4.8,1.4
					c2.1,1.8,4.5,2.3,6.9,2.7c1.5,0.3,2.9,0.6,4.2,1.1c0.2,0.1,0.5,0.1,0.7,0.1c0.8,0,1.6-0.4,2-0.5c0.7-0.4,1.2-1.1,1.3-1.9
					c0.1-0.8-0.3-1.6-1-2.2C944.9,852.4,943.2,851.1,941.3,849.7z M945.9,856.7c-0.7,0.4-1.4,0.5-1.8,0.4c-1.4-0.6-2.9-0.9-4.4-1.2
					c-2.3-0.5-4.5-0.9-6.4-2.5c-1.3-1.1-3.5-1.4-5.3-1.6l-0.7-0.1c-0.8-0.1-1.6-0.1-2.4-0.1c-0.6,0-1.2,0-1.9,0c-0.5,0-1,0-1.5,0
					c0.2-3.3,2.5-5.2,5-7.1c0.6-0.4,1.1-0.4,1.5-0.3c0.6,0.2,1.2,0.7,1.6,1.3c1.6,3.4,1.7,3.4,5.5,5.8l0.3,0.2l3.1-2.2l2,1.4
					c1.9,1.3,3.7,2.6,5.4,4c0.4,0.3,0.6,0.7,0.6,1.2C946.6,856.2,946.3,856.5,945.9,856.7z"/>
				<path class="st2" d="M1137.3,966.1c-0.6-0.8-1.6-1.2-2.7-1.2h-0.2c-0.4,0.1-9.9,3.7-8.8,10.9c0,0,0.1,1.2,1.1,2
					c0.7,0.6,1.7,0.9,2.9,0.9c0.3,0,0.5,0,0.8,0c4.3-0.4,7.3-3.4,7.7-6C1138.4,970.7,1138.7,967.7,1137.3,966.1z M1137,972.7
					c-0.4,2.2-3,4.7-6.7,5.1c-1.3,0.1-2.3-0.1-2.9-0.6s-0.7-1.3-0.7-1.3c-0.9-6.1,7.1-9.4,8-9.8c0.8,0,1.4,0.3,1.8,0.8
					C1137.7,968.3,1137.1,971.6,1137,972.7z"/>
				<path class="st2" d="M1125.3,978.9c-0.2-1.4-0.5-1.7-3.4-2.7l-0.2-0.1l-0.2,0.1c-0.3,0.1-7.8,3.4-11.7,6.6
					c-4,3.2-4.6,4.4-4.4,5.3c0.3,0.8,1.4,0.8,1.7,0.8h8.5c1.6,0,7-0.9,7.8-2.5c0.1-0.2,0.4-0.6,0.6-0.9c0.9-1.2,2.2-3,1.6-5.2
					C1125.4,979.7,1125.4,979.3,1125.3,978.9z M1123.2,984.8c-0.3,0.4-0.6,0.8-0.7,1.1c-0.4,0.8-4.7,1.9-6.8,1.9h-8.5
					c-0.5,0-0.7-0.1-0.7-0.1c0-0.2,0.2-1,4-4.1c3.5-2.8,10.1-5.8,11.3-6.3c2.3,0.9,2.3,0.9,2.5,1.8c0.1,0.4,0.1,0.9,0.3,1.5
					C1125.1,982.3,1124,983.7,1123.2,984.8z"/>
				<path class="st2" d="M1075.6,898.8l0.2-4.5l-0.1-0.4l-0.2-0.2l-0.1-0.1c-0.6-0.6-0.8-1.5-0.8-1.9c0-0.3,0.1-0.7,0.3-1.1l0.4-0.9
					l-1.8,0.2c-1.6,0.2-5-2.5-5.3-4.3c-0.1-0.5,0.1-1,0.5-1.3s0.9-0.4,1.4-0.2c0.8,0.4,1.6,0.8,2.4,1.3c0.7,0.4,1.4,0.8,2.1,1.2
					c1.5,0.7,2.5,0.8,3.3,0.4c0.8-0.4,1.2-1.2,1.5-2.7c0.5-2.9,0.8-5.7,0.9-8.4v-0.2c-0.2-0.6-0.4-1.1-0.5-1.7v-0.1
					c-0.2-0.4-0.4-0.8-0.6-1.1c-0.5-0.9-1.1-1.7-1.7-2.4c-0.1-0.2-0.3-0.4-0.4-0.6c0.9-1.3,1.3-2.4,1.7-3.2c0.7-1.5,0.9-1.9,2.4-1.9
					h0.2l0.2-0.1c1.4-1.2,1-3.3,0.6-5.4c-0.3-1.6-0.6-3.3,0-4.3c0.1-0.1,0.4-0.3,0.7-0.4c1.2-0.7,3.5-2.1,2.3-4.6s-2.4-5.3-3.6-8.5
					c-0.2-0.7-0.2-1.7,0.1-2.3c0.2-0.4,0.6-0.8,1-1l0.4-0.2l-0.2-0.6c0-0.2-0.1-0.3-0.1-0.5c-0.1-0.4-0.1-0.8,0-1.3l0.1-0.3
					l-0.2-0.2c-0.3-0.3-0.6-0.7-0.7-1.1c-0.8-2.6-2.6-4.4-4.3-6.1c-1.2-1.2-2.3-2.2-3.1-3.6c-0.8-1.3-2.8-2-4.3-2.5
					c-5.2-1.7-7.4-5.8-9.9-11h1l-0.6-0.8c-0.7-0.9-1.3-2-2-3.3l-0.2-0.4l-0.4,0.1c-1.3,0.2-2.8,0.4-4.5-0.1c2.9-1.9,2.3-4.8,1.9-7
					c-0.3-1.7-0.6-3.3-1-5.3l-0.3-1.9c0.2,0.1,0.3,0.1,0.5,0.2l0.8,0.2v-0.8c0-0.8-0.1-1.6-0.1-2.3v-0.4l-0.4-0.1
					c-2-0.7-3.9-1.6-5.9-2.6c-2.3-1.1-4.7-2.3-7.3-3.2l0,0c0.6-0.3,1.2-0.5,1.4-0.4c0.8,0.2,1.6,0.4,2.4,0.6
					c1.8,0.4,3.6,0.9,5.4,1.5l2,0.7l-1.4-1.6l-0.2-0.2c-0.8-0.9-1.5-1.9-1.9-3l-0.1-0.3h-0.3c-9.8-0.5-19.4-2.9-28.8-5.3
					c-1.3-0.3-2.6-0.7-3.9-1c-5.3-1.3-11.5-2.8-17.8-3.3c-1.8-0.1-3.6-0.2-5.3-0.3c-4.4-0.2-8.5-0.4-12.6-1.6
					c-0.8-0.2-1.3-0.7-1.7-1.4l-0.1-0.3h-0.4c-0.1,0-0.2,0-0.3,0c-9.2,0-18.3-0.8-27.6-1.6h-0.5l-0.1,0.5c-0.3,1.3-1.2,2-2.5,2
					c-1.4,0-2.9,0-4.4,0c-7.1,0.1-14.5,0.2-21.3-1.7c-0.3-0.1-0.6-0.3-1-0.6l-0.2-0.2h-0.2c-32.7,3-64.3,11.1-91.4,23.2l-0.2,0.1
					l-2.3,3.8c-1.2,2-3,3.5-5.2,4.3l-0.2,0.1l-0.1,0.2c-0.5,1.2-1,2.2-1.8,3.1l-0.1,0.1v0.2c-0.3,3.4-2.3,7.6-7,8.8l0.2,1.1l0.5-0.1
					c0.3,0,0.6-0.1,0.9-0.1c-1.4,1.9-3.2,2.8-5,3.7c-0.7,0.3-1.3,0.7-2,1.1l-0.3,0.2c-3.5,2.1-7.2,4.3-11,6.2
					c-4.5,2.3-8.7,4.8-9.5,10.5c0,0.3-0.5,0.8-0.8,0.9c-1,0.2-1.9,0.6-2.9,0.9c-1.3,0.5-2.6,0.9-3.9,1.1h-0.2l-0.1,0.2
					c-0.4,0.6-0.9,1.2-1.3,1.8l-0.6,0.8l-0.2,0.4c-0.1,0.2-0.3,0.3-0.4,0.5l-0.3,0.4c-7.1,9.9-12.6,18.3-17.5,26.6l-0.1,0.2
					c-0.1,0.5-0.4,0.9-0.8,1.4l-0.9,1.5c-0.2,0.8,0,1.7,0.6,2.5l0.4,0.5l0.4-0.5c0.6-0.6,1-0.8,1.5-0.9c0.5-0.2,1.1-0.3,1.7-1
					c1.4-1.4,2.1-2,2.5-2.3c0,0.1,0,0.1,0,0.2c-0.1,0.3-0.2,0.7-0.1,1.2c0,0.4-0.1,0.8-0.3,1.3c-0.1,0.4-0.3,0.9-0.3,1.4l-0.1,0.9
					c-0.1,2.5-0.3,5-0.1,7.5c0.1,1.4,0.7,3,1.6,4.1c0.6,0.7,1,1.4,1.2,2l0.1,0.3h0.4c1.7,0.2,3.4,0.9,5.2,2.1c2,1.3,4,3,5.8,5
					l0.1,0.1h0.2c0.8,0.2,1.7,0.7,2.4,1.3c2.2,2,4.4,4,6.5,6c0.9,0.9,1.8,1.7,2.7,2.6c0.1,0.1,0.2,0.2,0.3,0.4
					c0.4,0.4,0.8,0.8,1.3,1c2.5,0.6,2.8,2.2,2.5,4.8c-0.4,3-0.2,11.1,0,13.3c0.1,0.5,0.1,1.1,0.1,1.6c0,0.7,0,1.4,0.1,2.1
					c0.7,4.7,2.7,8.1,5.9,10.2c2.6,1.7,3.3,3.9,3.6,6.9v0.2l0.2,0.1c1,0.9,1.7,2,2.3,3.2l0.1,0.3h0.4c1.2,0,2.3,0.5,3.6,1.7
					c6.1,5.8,10.5,13,14.7,20.1l0.3,0.5c0.3,0.5,0.4,1.1,0.6,1.8c0,0.1,0,0.1,0,0.2h-0.9l0.6,0.9c0.5,0.7,0.9,1.5,1.3,2.4l0.1,0.4
					h1.1c0.3,0.4,0.6,0.8,0.9,1.3c1,1.3,2.1,2.8,2.9,4.4c1.2,2.2,3.1,4.5,5.2,7c2.4,2.9,4.9,5.9,6,8.6l0.5,0.5
					c0.4,0.3,0.7,0.7,1.1,1l0.5,0.4c0.7,0.4,1.5,0.7,2.3,1c1,0.4,2,0.8,2.7,1.3c2.7,1.3,5.3,2.9,8,4.5l0.2,0.1l0.3-0.1
					c2.1-0.8,3.7,0,5.4,0.9c1.3,0.7,2.6,1.3,4,1.3c0.5,0,0.9-0.1,1.4-0.2l0.4-0.1v-2.9h0.1c0.1,0,0.2-0.1,0.3-0.1l0.5-0.1l-0.1-0.5
					c-0.2-1-0.3-1.9-0.6-2.7l-0.1-0.5l-0.9,0.2c-0.6,0.2-1.3,0.3-1.9,0.3c-0.8,0-1.7-0.2-2.6-0.4l-0.5-0.1c-0.6-0.1-0.6-0.3-0.5-1.1
					c0-0.4,0.1-0.9-0.1-1.3c-1.1-2.1-2.3-3.7-3.6-5c-0.5-0.5-1-0.9-1.6-1.4c-1.8-1.5-3.6-2.9-2.8-5c0.4-1,0.3-2.1,0.3-3.2
					c0-0.7,0-1.4,0-2c0.2-1.1,0.5-2.3,0.8-3.4c0.1-0.5,0.2-0.9,0.4-1.4c0-0.2,0-0.4,0-1.6c0-2.1-0.1-6.9,0.6-8.1
					c1.9-3.2,1.9-6.5,1.9-9.7c0-0.5,0-0.9,0-1.4s0-1.1,0-1.6c0-1.5,0-3,0.2-4.4c0.1-1.2,0.6-1.6,0.9-1.9l0.2-0.2v-0.3
					c0-1.4,0.3-2.8,0.9-4.2c0.3-1.2,0.5-2.3,0.8-3.5c0.8-3.3,1.5-6.4,2.1-9.6c0.3-1.8,0.4-3.6,0.5-5.4c0-0.5,0-1.1,0.1-1.6
					c0-0.4-0.1-0.7-0.2-1c-0.1-0.3-0.2-0.5-0.1-0.7c0-0.2,0.3-0.5,0.5-0.7l1.1,0.7l-0.6-1.6c-0.1-0.3-0.2-0.7-0.3-1l-0.1-0.4
					l-0.4-0.1c-0.9-0.1-1.6-0.3-2.2-0.6l-0.1-0.1h-0.1c-3.8,0.2-5.9-0.6-8.8-1.7c-0.7-0.3-1.5-0.6-2.4-0.8c-0.5-0.2-1.1-0.3-1.6-0.4
					c-0.6-0.1-1.1-0.2-1.6-0.4c-0.4-0.1-1-0.3-1.7-0.4c-0.9-0.2-2.7-0.6-2.9-0.8c-1-2.3-2.5-4.3-4.9-6.4c-0.6-0.5-0.9-1.7-1.2-2.6
					c-0.3-1.3-0.5-2.5-0.8-3.8c-0.1-0.5-0.2-1.1-0.3-1.6l-0.1-0.3l-0.3-0.1c-2.9-1.3-5.8-0.9-8.4-0.6h-0.4c-3.2,0.4-8.3-2-11.7-4.2
					c-0.6-0.4-1.2-0.5-1.8-0.7c-0.5-0.1-0.9-0.2-1.3-0.4c-0.3-0.2-0.6-0.1-0.8,0.1c-0.9-0.1-1.8-0.1-2.6-0.2l-0.5,0.2v0.2
					c-1.8,0.9-3.5,1.5-5.2,2.1c-1.6,0.6-3.3,1.3-5.1,2.1c-1.3,0.6-2.6,0.6-3.8,0.1c-1.7-0.8-3.2-2.9-4-5.7h0.4l-0.5-1.3
					c-0.1-0.5-0.1-1,0-1.4l0.4-0.8c0.1-0.1,0.1-0.1,0.2-0.2l0.1-0.3v-0.2c-0.1-0.4-0.1-0.8-0.1-1.1c0.1-0.4,0.2-0.8,0.4-1.2
					c0.2-0.5,0.4-0.9,0.5-1.4c0.5-2.8-0.2-3.9-3.2-4.9c-2.1-0.7-2.1-0.7-1.5-2.8v-0.1c0.4-1.5,0.8-3.3,1-5.5
					c0.2-1.6,1.8-1.8,3.9-1.9c0.7,0,1.3-0.1,1.7-0.2c0.6-0.2,3.2,0.9,5.1,1.7c1.7,0.7,3.4,1.4,4.7,1.7h0.1h0.1l0,0
					c0.1,0,0.8,0.1,1.2,0.2c0.8,0.1,1.2,0.2,1.4,0.2h0.4l0.1-0.4c0.1-0.5,0.3-0.7,0.5-0.9c0.2-0.3,0.5-0.6,0.7-1.3
					c0.3-1.1,0.2-2.1,0.2-2.8c0-0.4,0-0.9,0-1c0,0,0.2-0.2,1.3,0c0.6,0.1,0.8-0.5,1-1.7c0.1-0.3,0.2-0.7,0.2-0.9l0.1-0.1
					c2.6-3,4.5-5,7.9-6.4l0.1-0.1c3.8-2.9,4.9-3.3,6.5-3.9c0.7-0.3,1.5-0.6,2.7-1.1c1.6-0.8,2.4-2.2,3.1-3.6c0.5-1,1.1-2.1,2-2.9
					c1.2-1,2.1-1.2,3.3-0.8c2,0.8,3.7,0.4,5.8-0.5c1.4-0.6,3-0.7,4.7-0.7c0.5,0,1.1-0.1,1.6-0.1c0.2,0,0.5,0,0.7,0
					c1.2-0.1,2.5-0.1,3.2-1c0.5-0.6,0.7-1.5,0.5-2.7c0,0,0.1-0.3,1.2-1.1c0.1-0.1,0.6,0,0.8,0l5.6,0.4l0.1-0.4
					c0.1-0.4,0.2-0.8,0.4-1.3c0.1,0,0.2,0,0.2,0l0.8-0.1l0.1-0.4c0-0.3,0.1-0.7,0.2-1.2c0.2-1.5,0.6-3.9,0.9-4.6
					c0.5-0.9,0.9-1.7,1.3-2.4c1.6-3,2.3-4.3,5.5-7.5c1.2-1.2,1.9-2.9,2.7-4.6c0.4-1,0.8-1.9,1.3-2.7c0.4-0.6,0.8-1.3,0.8-1.4
					c0.1,0,0.2,0.1,0.4,0.2l0.7,0.4l0.6-0.9l0.1-0.4c0-0.6,0.1-1.2,0.1-1.8c0-0.5,0.1-0.9,0.4-1.3l0.3-0.7h-0.1
					c0.5-0.8,1.2-1.6,1.8-2.4c1.2-1.4,2.3-2.8,2.5-4.1c0.3-1.6,0.4-1.7,1-1.8c0.3-0.1,0.7-0.2,1.2-0.5c0.9-0.5,3-1.8,4-3.1
					c1.9-2.6,1.6-4.2,1-5c-1.1-1.5-3.8-3-5.5-2.4c-0.2,0.1-0.5,0.2-1,0.3c1-0.5,1.9-0.8,2.7-1c1.7-0.3,2.5,0.7,3.7,2.4
					c0.6,0.9,1.2,1.9,2.2,2.5c0.3,0.2,0.5,0.5,0.8,0.8c0.1,0.1,0.2,0.3,0.3,0.4c-0.7,1.5-1.3,3.1-1.9,4.6c-0.8,2.4-1.7,4.8-3.3,7
					c-1.2,1.7-2.5,2.5-4.3,2.6l-0.7,0.1l0.3,0.7c0.1,0.3,0.2,0.7,0.2,1s0,0.6,0,0.9v0.6l0.3,0.6c0.6,1.1,1.1,2,1.5,2.9l0.1,0.3
					l0.8,0.2c0.8,0.1,1.5,0.3,2.3,0.5c0.7,0.2,1.5,0.4,2.2,0.6h0.1h0.1c0.4-0.1,0.8-0.1,1.1-0.1c4,0.2,7-1.1,9.6-4
					c0.7-0.8,2.2-1.1,3.5-1.4c0.8-0.1,1,0.2,1.4,1.2c0.1,0.3,0.3,0.6,0.5,0.9c0.5,0.8,2.1,0.7,2.9,0.4c0.5-0.2,0.8-0.7,1.2-1.4l0,0
					c0.6,2.9,0,4.7-2,6.2l-0.3,0.2c-1.1,0.9-2.9,2.4-1.5,4.3c1.4,1.9,3.9,0.8,5,0.3c2.5-1.1,2.5-1.1,3.9,1.2c0.3,0.5,0.6,1,1,1.7
					l1.4,2.4l0.4-1.1c0.2-0.5,0.4-1,0.5-1.4c0.3-0.8,0.6-1.4,0.7-2.1c0.1-1,0.2-2,0.2-3c0-0.7,0.1-1.4,0.1-2.2
					c0.4-3.8,2.4-6,6.2-6.7c-0.1,0.2-0.1,0.3-0.2,0.5c-0.4,1-0.7,1.8-1.1,2.7c-0.1,0.2-0.3,0.5-0.4,0.7c-0.4,0.6-0.9,1.2-0.7,2
					c0.1,0.5,0.5,0.9,1.2,1.3c0,0.1,0,0.3,0,0.4l-0.5,3.3c-0.4,3.1-0.9,6.4-1.4,9.5c-0.2,1-1,2-2.2,2.7c-1.3,0.8-2.9,1.1-4,0.7
					l-0.7-0.2v0.7c0,0.7-0.1,1.5-0.3,2.1l-0.2,0.7h0.7c1.2-0.1,1.6,0,1.8,0.9c0.2,1.1-0.3,1.8-1.6,2.1c-0.3,0.1-0.5,0.1-0.8,0.2
					c-0.5,0.1-1,0.2-1.5,0.4c-0.2,0.1-0.5,0.2-0.7,0.3l-0.2,0.1c-0.3,0.3-0.6,0.6-0.9,0.8l-0.1,0.1l-0.1,0.2
					c-0.3,0.9-0.7,1.8-1.1,2.7c-1.3,2.9-2.7,6-1,9.7c-3.3,1.1-5.5,3.4-7.1,5.3c-0.8,1-1.3,1.5-2.2,1.4l-0.4-0.1l-0.2,0.4
					c-0.3,0.7-0.6,1.3-1.1,1.9l-0.6,0.9h1.5c-0.1,0.3-0.2,0.5-0.3,0.7c-0.4,1-0.8,1.8-1.2,2.5c-1.1,1.7-2.2,3.5-3.3,5.2
					c-1.4,2.2-2.8,4.4-4.2,6.6c-0.6,1-1,2.3-1.1,3.7c-0.1,1.3,0,2.6,0.1,4c0,0.4,0.1,0.8,0.1,1.2h-1.4l0.2,0.7
					c0.3,0.9,0.4,1.9,0.4,2.8v0.5h1.3c2.9,6.9,9.5,7.9,15.5,8h0.3c2.6,0,5.2,0.1,7.8,0c0.7,0,1.3,0.1,1.8,0.2h0.2
					c2.5,0.1,4.5,0.9,6.2,2.3l0.3,0.1c1.7,0.5,3.2,1,4.4,2s2,2.6,2.8,4.1c0.2,0.5,0.5,0.9,0.7,1.4c0.3,0.5,0.4,1.1,0.5,1.8
					c0,0.3,0.1,0.5,0.1,0.8c0.2,0.8,0.3,1.9,0,2.2l-0.2,0.3l0.1,0.3c0.5,1.2,0.8,2.5,0.8,3.8v0.2l0.2,0.2c0.3,0.3,0.6,0.7,0.7,0.9
					l0.5,1.5c0.9,2.8,1.9,5.8,2.1,8.7l0.1,0.8c0.3,3.3,0.5,6.4,2.4,9.3c0.2,0.3,0.2,0.6,0.2,1h-1.4l1.2,1c1.1,0.9,2,2.1,2.6,3.6
					l0.2,0.2c0.4,0.3,0.5,0.5,0.6,0.6c0.6,1.1,1,2.3,1.4,3.5c0.4,1,0.7,2,1.2,3c0.9,2,2,4.2,3.4,6.1c1.4,2,3.5,2.3,5.7,0.9
					c1.1-0.7,2.2-1.6,3.2-2.4c0.8-0.6,1.6-1.2,2.4-1.8c0.8-0.5,1.7-1.2,2.5-1.3c2.3-0.1,4.5-0.4,5.4-3.8c0.3-1.4,1.4-2.7,2.6-4.1
					c0.2-0.2,0.5-0.5,0.8-0.7l0.1-0.1l0.1-0.2c0.3-1,0.7-1.8,1.1-2.5c0.3-0.4,0.6-0.9,0.9-1.2l0.1-0.2c0.1-0.3,0.3-0.7,0.4-1
					c0.3-0.9,0.6-1.7,1-2.5c0.2-0.5,0.5-1,0.7-1.5c0.8-1.7,1.7-3.5,2.8-4.9c1.6-2.1,2.3-4.5,2.2-7.8c0-1.2,0-2.2,0-3.2
					c0.1-1.3,0.3-2,0.8-2.4c0.4-0.3,1.1-0.4,2.1-0.3h0.4l0.2-0.3c0.4-0.7,1-1.3,1.7-1.9l0.1-0.2c0.2-0.4,0.5-0.9,0.8-1.3
					c1-1.5,2.2-3,3.6-4.3l0.1-0.1c0.5-1,1.1-1.7,1.7-2.3l0.2-0.2v-0.2c-0.1-2.7,0.3-4.6,2.7-6.5c1.9-1.5,2.9-3.9,3.9-6.3
					c0.3-0.6,0.5-1.2,0.8-1.8c0.5-1,1-1.5,1.8-1.7l0.5-0.1v-0.5c-0.1-0.9-0.1-1.7-0.1-2.4l-0.1-0.6h-0.6c-2.3,0.1-4.7-0.3-6.9-0.7
					c-0.7-0.1-1.6-0.6-1.7-0.8c-0.1-0.8,0.2-2,0.6-2.3c1.5-1.2,3.4-2.2,5.6-3.2c2.6-1.1,5.1-2.1,7.4-2.8c2.1-0.6,3.1-1.9,3.2-4.2
					c0.2-4.7-0.1-5.5-4.6-7c-2-0.6-3.3-1.3-4.3-3c0.1,0,0.2-0.1,0.2-0.1c0.4-0.2,0.8-0.5,1-0.5l0,0c0.9,0,1.8,0,2.7,0
					c2.3,0,4.7-0.1,6.4,0.9c0.8,0.5,1.7,0.9,2.6,1.4c2.9,1.5,5.9,3,8.1,5.7c1.3,1.6,2.5,3.5,3.7,5.4c1.5,2.4,3.1,4.9,5,6.9
					c1.6,1.7,2.8,3.1,2.5,5.1h-1.9l0.8,1c0.1,0.1,0.1,0.1,0.2,0.2l0.3,0.2h0.4c0.7,0,1.4,0.3,2,0.8c0.5,0.4,0.7,1,0.7,1.5l0.1,0.3
					l0.3,0.1c0.6,0.3,1.1,0.9,1.9,2.2c0.2,0.3,0.3,0.6,0.5,1c0.1,0.2,0.2,0.4,0.3,0.7l0.2,0.5l2-1.1l0.2,0.4l0.6-0.3
					c0.3-0.1,0.4-0.2,0.6-0.3c0.3-0.1,0.8-0.1,1.2-0.1l0.7,0.1l-0.2-0.9c0-0.1,0-0.3-0.1-0.4c-0.3-1.3,0.3-1.7,0.8-1.9l0.3-0.1
					l0.1-0.3c0.2-0.8,0.4-1.5,0.7-2.1c0-0.1,0.1-0.1,0.1-0.2c0-0.1,0.1-0.1,0.1-0.2l0.3-0.6l-0.6-0.2c-0.6-0.2-0.7-0.9-0.6-1.5
					c0.4-4.2,2.6-9.9,5.2-13.3c1.4-2,2.9-2.6,4.6-2.2c0.9,0.2,1.9,0.4,2.8,0.5c1.6,0.2,3,0.5,4.3,1.1c0.7,0.4,1.9,2.4,2.9,7.2
					c0.5,2.2,1.6,2.8,2.8,3.5c0.7,0.4,1.5,0.8,2.2,1.7c0.2,0.2,0.3,0.7,0.5,1.2c0,0.1,0.1,0.2,0.1,0.3l-1.9-0.1l0.5,0.9
					c0.3,0.5,0.6,1.1,0.9,1.8c0.1,0.1,0.1,0.3,0.1,0.4l0.2,0.7l0.5-0.1c0.3-0.1,0.7-0.1,1.1-0.1l0,0c1.9,0,3.1,0.7,4.2,2.3
					c0.5,0.8,1.1,1.4,1.8,2.2c0.1,0.1,0.3,0.3,0.4,0.4c-0.6-0.3-1.1-0.5-1.3-0.6c-0.5-0.3-4.3-2.3-6.2-2.3h-0.1h-0.3
					c-2.2,0.1-4.6,0.3-4.6,1.7c0,1,1,4.4,1.7,5.5c0.7,1.2,8.6,6.3,10.1,6.9c0.6,0.3,1.2,0.4,1.6,0.4c1,0,1.6-0.4,1.6-0.4l0.3-0.2
					v-0.3c0.2-8.8-0.4-9.3-0.6-9.5C1076,899,1075.8,898.9,1075.6,898.8z M1072.6,894.6c-1.3-1.9-2.9-2.7-5.1-2.7l0,0
					c-0.3,0-0.5,0-0.8,0c0-0.1,0-0.1-0.1-0.2c-0.1-0.4-0.3-0.7-0.5-1.1l1.5,0.1l-0.3-0.8c-0.1-0.4-0.2-0.7-0.3-1
					c-0.2-0.6-0.3-1.2-0.7-1.6c-0.9-1-1.7-1.5-2.5-1.9c-1.1-0.6-1.9-1.1-2.2-2.8c-1-4.6-2.1-7.3-3.4-7.9c-1.4-0.7-3-1-4.6-1.2
					c-0.9-0.1-1.8-0.3-2.7-0.5c-3.3-0.9-5.2,1.7-5.8,2.6c-2.7,3.6-4.9,9.5-5.4,13.9c-0.1,1,0.2,1.8,0.8,2.3
					c-0.3,0.6-0.5,1.3-0.7,2.1c-0.7,0.4-1.5,1.2-1.2,2.9c-0.3,0-0.6,0-0.9,0.1c-0.1,0-0.2,0.1-0.3,0.1l-0.2-0.4l-2,1.1v-0.1
					c-0.2-0.4-0.3-0.8-0.6-1.2c-0.7-1.2-1.4-2.1-2.2-2.5c-0.2-0.7-0.5-1.4-1-1.8c-0.4-0.4-0.9-0.7-1.5-0.9c0.6-2.8-1.2-4.8-2.7-6.4
					c-1.8-1.9-3.4-4.4-4.9-6.7c-1.2-1.9-2.4-3.8-3.8-5.5c-2.3-2.8-5.4-4.4-8.4-6c-0.9-0.4-1.7-0.9-2.5-1.3c-1.9-1.1-4.5-1.1-6.9-1
					c-0.9,0-1.7,0-2.6,0c-0.6,0-1.2,0.3-1.7,0.6c-0.2,0.1-0.4,0.3-0.6,0.4l-0.5,0.2l0.2,0.5c1.2,2.6,3.3,3.4,5.1,4
					c4,1.3,4.1,1.6,3.9,5.9c-0.1,1.9-0.7,2.7-2.4,3.2c-2.4,0.7-5,1.6-7.6,2.8c-2.2,1-4.2,2.1-5.8,3.3c-0.9,0.7-1.2,2.4-1,3.4
					s1.9,1.5,2.6,1.7c2.1,0.3,4.3,0.7,6.6,0.7c0,0.5,0,1,0.1,1.6c-0.9,0.3-1.5,1-2.1,2.1c-0.3,0.6-0.5,1.2-0.8,1.8
					c-1,2.2-2,4.5-3.6,5.8c-2.7,2.1-3.2,4.3-3.1,7.1c-0.6,0.6-1.1,1.4-1.6,2.3c-1.4,1.3-2.6,2.8-3.6,4.4c-0.3,0.4-0.5,0.9-0.8,1.3
					c-0.7,0.5-1.2,1.2-1.6,1.8c-1.1-0.1-2,0.1-2.5,0.6c-0.7,0.6-1.1,1.6-1.2,3.2c-0.1,1.1-0.1,2.1,0,3.3c0.1,3-0.5,5.2-2,7.1
					c-1.2,1.6-2,3.4-2.9,5.1c-0.2,0.5-0.5,1-0.7,1.5c-0.4,0.8-0.7,1.7-1.1,2.6c-0.1,0.3-0.2,0.6-0.3,0.9c-0.4,0.4-0.7,0.9-1,1.3
					c-0.4,0.7-0.8,1.5-1.1,2.5c-0.3,0.2-0.6,0.5-0.8,0.8c-1.2,1.5-2.4,2.9-2.8,4.5c-0.6,2.4-1.9,2.9-4.3,2.9c-1.1,0-2.2,0.8-3.1,1.5
					c-0.8,0.6-1.6,1.2-2.4,1.8c-1,0.8-2,1.6-3.1,2.3c-1.2,0.8-2.9,1.3-4.2-0.6c-1.3-1.9-2.3-4-3.3-6c-0.4-0.9-0.8-1.9-1.2-2.9
					c-0.4-1.2-0.9-2.4-1.5-3.6c-0.1-0.3-0.4-0.6-0.7-0.9c-0.5-1.2-1.3-2.3-2.2-3.2l-0.1-0.3c0-0.1,0-0.3,0-0.4
					c0-0.5-0.1-1.1-0.4-1.6c-1.7-2.7-2-5.6-2.2-8.8l-0.1-0.8c-0.3-3-1.2-6-2.2-8.9l-0.5-1.5c-0.2-0.5-0.5-1-0.8-1.3
					c-0.1-1.3-0.3-2.5-0.8-3.7c0.3-0.6,0.3-1.6,0-2.9c0-0.2-0.1-0.5-0.1-0.7c-0.1-0.7-0.2-1.5-0.6-2.2c-0.2-0.4-0.5-0.9-0.7-1.4
					c-0.8-1.7-1.7-3.4-3.1-4.5c-1.3-1-3-1.6-4.7-2.1c-1.8-1.5-4.1-2.4-6.7-2.5c-0.6-0.2-1.3-0.3-2.1-0.3c-2.6,0.1-5.2,0-7.7,0h-0.3
					c-6.1-0.1-12-1-14.6-7.7l-0.1-0.3h-0.9c0-0.6-0.1-1.2-0.3-1.9h1.2v-0.6c0-0.6-0.1-1.2-0.1-1.8c-0.1-1.3-0.2-2.6-0.1-3.8
					c0.1-1.2,0.4-2.4,0.9-3.2c1.4-2.2,2.8-4.5,4.2-6.6c1.1-1.7,2.2-3.5,3.3-5.2c0.5-0.8,0.9-1.7,1.3-2.7c0.2-0.5,0.4-1,0.7-1.5
					l0.4-0.8h-1.1c0.2-0.3,0.3-0.6,0.4-0.9l0,0c1.3,0,2.1-1,2.8-1.8c2.3-2.9,4.5-4.4,7.1-5.1l0.7-0.2l-0.3-0.6
					c-1.8-3.5-0.6-6.3,0.8-9.3c0.4-0.9,0.8-1.8,1.1-2.7c0.3-0.2,0.6-0.5,0.8-0.8c0.2-0.1,0.4-0.1,0.6-0.2c0.4-0.1,0.9-0.2,1.4-0.3
					c0.3-0.1,0.6-0.1,0.9-0.2c1.8-0.4,2.7-1.7,2.4-3.3c-0.3-1.5-1.3-1.8-2.2-1.8c0.1-0.3,0.1-0.7,0.1-1c1.3,0.2,2.9-0.1,4.3-1
					c1.5-0.9,2.5-2.2,2.7-3.5c0.5-3.2,1-6.4,1.5-9.5l0.5-3.3c0.1-0.9,0-1.3-0.4-1.5c-0.7-0.3-0.8-0.6-0.9-0.7
					c-0.1-0.2,0.2-0.7,0.5-1c0.2-0.3,0.4-0.6,0.6-0.9c0.4-0.9,0.8-1.8,1.1-2.8c0.2-0.4,0.3-0.9,0.5-1.3l0.3-0.8l-0.9,0.1
					c-5,0.6-7.6,3.1-8.1,7.8c-0.1,0.7-0.1,1.5-0.2,2.2c-0.1,0.9-0.1,1.9-0.2,2.9c-0.1,0.5-0.3,1.1-0.6,1.8c0,0.1-0.1,0.2-0.1,0.3
					l-0.2-0.4c-0.4-0.7-0.7-1.2-1-1.7c-1.8-2.9-2.1-3.1-5.3-1.6c-2,0.9-3,0.9-3.7,0.1c-0.7-1-0.2-1.6,1.3-2.8l0.3-0.2
					c2.6-2.1,3.2-4.6,2-8.7l-0.3-1.2l-0.7,1.1c-0.3,0.5-0.5,0.9-0.7,1.3c-0.2,0.4-0.5,0.9-0.6,0.9c-0.5,0.2-1.4,0.1-1.5,0
					c-0.1-0.2-0.3-0.5-0.4-0.7c-0.4-0.9-1-2.1-2.6-1.8s-3.3,0.7-4.2,1.7c-2.3,2.7-5,3.8-8.7,3.6c-0.4,0-0.8,0-1.3,0.1
					c-0.7-0.2-1.5-0.4-2.2-0.6c-0.8-0.2-1.5-0.3-2.3-0.5H884c-0.4-0.9-0.9-1.8-1.5-2.8l-0.2-0.3v-0.3c0-0.3,0-0.7,0-1s0-0.5-0.1-0.8
					c1.8-0.3,3.2-1.2,4.4-3c1.7-2.3,2.6-4.8,3.4-7.3c0.6-1.7,1.2-3.3,2-4.8l0.2-0.3l-0.2-0.3c-0.2-0.2-0.3-0.4-0.5-0.6
					c-0.3-0.4-0.6-0.8-1-1.1c-0.7-0.5-1.3-1.3-1.9-2.2c-1-1.6-2.2-3.4-4.8-2.9c-0.6,0.1-1.3,0.3-2,0.6c0-0.2,0.1-0.5,0-0.7l-0.1-0.9
					c-0.1-0.3-0.2-0.6-0.3-0.8v-0.1c-0.3-0.8-0.9-1.6-1.7-1.9c-0.5-0.3-1.2-0.3-1.7-0.3c-0.2,0-0.5,0-0.7,0
					c-5.2-0.6-9.5,1.5-13.6,3.6c-0.6,0.3-1.2,0.6-1.7,0.9c-1.8,0.9-3.8,1.7-5.6,2.5c-1.5,0.7-3.1,1.3-4.6,2l-0.2,0.1
					c-1.5,0.7-3.1,1.4-4.2,2.7c-2.1,2.3-4.5,4.4-8.4,4.2c-1.2-0.1-3.5-0.2-4.4,2.7l-0.2,0.8h0.8c4.9-0.3,8.7-2.7,12.3-5l1.4-0.9
					c0.7-0.4,8.7-2.2,10.3-2.5s5-0.8,8.5-1.3c6.4-1,13.6-2,15.3-2.6c1-0.4,3.3,0.7,4.2,2c0.7,1-0.1,2.6-1,3.7
					c-0.7,0.9-2.3,2.1-3.6,2.8c-0.4,0.3-0.8,0.4-1,0.5c-1,0.4-1.4,0.7-1.7,2.7c-0.2,1-1.3,2.3-2.3,3.5c-0.9,1.1-1.8,2.2-2.4,3.3
					l-0.4,0.7h0.3c-0.1,0.4-0.2,0.7-0.2,1.1c0,0.5,0,1-0.1,1.6c-0.3-0.1-0.5-0.2-0.8-0.1c-0.5,0.1-0.8,0.6-1.5,1.9
					c-0.5,0.8-0.9,1.8-1.3,2.8c-0.7,1.6-1.4,3.3-2.4,4.3c-3.4,3.3-4.1,4.7-5.7,7.8c-0.4,0.7-0.8,1.5-1.3,2.4
					c-0.4,0.8-0.7,2.7-1.1,4.9c0,0.3-0.1,0.5-0.1,0.8l0,0c-0.2,0-0.5,0.1-0.5,0.1h-0.3l-0.1,0.3c-0.2,0.5-0.3,0.9-0.5,1.3l-4.6-0.3
					c-0.5,0-1.1-0.1-1.5,0.2c-1.2,0.8-1.7,1.5-1.6,2.1c0.1,0.9,0,1.5-0.3,1.9c-0.4,0.5-1.4,0.6-2.4,0.6c-0.2,0-0.5,0-0.7,0
					c-0.5,0-1,0.1-1.5,0.1c-1.7,0.1-3.5,0.2-5,0.8c-1.9,0.8-3.3,1.2-5,0.5c-2-0.8-3.4,0.1-4.4,1c-1.1,0.9-1.7,2.1-2.3,3.2
					c-0.7,1.3-1.3,2.6-2.6,3.2c-1.1,0.5-1.9,0.8-2.6,1.1c-1.6,0.6-2.8,1.1-6.7,4c-3.5,1.4-5.5,3.5-8.1,6.5c-0.3,0.2-0.5,0.8-0.6,1.6
					c-0.1,0.2-0.1,0.5-0.2,0.8c-0.9-0.1-1.4,0-1.8,0.3c-0.5,0.4-0.5,1.1-0.4,1.9c0,0.7,0.1,1.5-0.1,2.5c-0.1,0.4-0.2,0.6-0.4,0.8
					s-0.4,0.5-0.6,0.9c-0.2,0-0.6-0.1-0.8-0.1c-0.7-0.1-1.1-0.2-1.4-0.2c-1.2-0.3-2.9-1-4.5-1.7c-3-1.2-4.9-2-5.8-1.7
					c-0.3,0.1-0.9,0.1-1.5,0.2c-1.8,0.1-4.6,0.3-4.9,2.9c-0.2,2.2-0.6,3.9-1,5.4v0.1c-0.8,2.8-0.7,3.1,2.2,4.2
					c2.5,0.9,2.9,1.4,2.5,3.7c-0.1,0.4-0.2,0.8-0.4,1.2s-0.4,0.9-0.5,1.4c-0.1,0.4,0,0.9,0,1.3c-0.1,0.1-0.1,0.2-0.2,0.3l-0.4,0.9
					c-0.2,0.6-0.2,1.3,0,2h-0.2l0.2,0.7c0.9,3.4,2.6,6,4.8,7c1.5,0.7,3.1,0.7,4.7-0.1c1.8-0.8,3.5-1.5,5-2.1
					c1.7-0.7,3.5-1.4,5.5-2.3l0.1-0.1c0.4,0,0.9,0,1.4,0.1v0.1l-0.1,0.5l0.4,0.1c0.4,0.2,0.7-0.2,0.8-0.4c0-0.1,0.2-0.3,0.3-0.4
					c0.4,0.2,0.9,0.3,1.3,0.4c0.6,0.1,1.1,0.3,1.5,0.6c1.3,0.8,7.8,4.9,12.4,4.3h0.4c2.5-0.3,5-0.6,7.5,0.4c0.1,0.5,0.2,0.9,0.2,1.3
					c0.2,1.3,0.5,2.6,0.8,3.9c0.3,1,0.6,2.4,1.5,3.1c2.3,2,3.7,3.8,4.6,6c0.3,0.7,1.6,1.1,3.7,1.5c0.6,0.1,1.2,0.3,1.5,0.4
					c0.6,0.2,1.2,0.3,1.8,0.4c0.5,0.1,1,0.2,1.4,0.3c0.9,0.3,1.7,0.6,2.4,0.8c2.9,1,5.1,1.9,9,1.7c0.6,0.3,1.3,0.5,2,0.6
					c0,0.1,0.1,0.2,0.1,0.3c-0.4,0.3-0.8,0.9-0.9,1.4c-0.1,0.4,0,0.9,0.1,1.2c0.1,0.2,0.1,0.5,0.1,0.7c0,0.5,0,1.1-0.1,1.6
					c-0.1,1.7-0.1,3.5-0.4,5.3c-0.6,3.2-1.3,6.3-2.1,9.6c-0.3,1.2-0.5,2.3-0.8,3.4c-0.6,1.3-0.9,2.7-1,4.2c-0.6,0.5-1,1.3-1.1,2.5
					c-0.2,1.5-0.2,3-0.2,4.5c0,0.5,0,1.1,0,1.6s0,0.9,0,1.4c0,3.2,0,6.3-1.8,9.2c-0.8,1.3-0.8,5.2-0.8,8.7c0,0.6,0,1.2,0,1.3
					c-0.1,0.5-0.2,0.9-0.4,1.4c-0.3,1.2-0.6,2.3-0.8,3.6c-0.1,0.7-0.1,1.5,0,2.2c0,1,0.1,2-0.2,2.8c-1,2.8,1.2,4.6,3.2,6.2
					c0.5,0.5,1.1,0.9,1.5,1.3c1.2,1.2,2.3,2.7,3.4,4.7c0.1,0.1,0,0.4,0,0.7c-0.1,0.6-0.2,1.8,1.3,2.2l0.4,0.1
					c0.9,0.2,1.9,0.5,2.9,0.5c0.7,0,1.3-0.2,1.9-0.3c0.1,0.5,0.2,1.1,0.3,1.6l-0.7,0.2v2.8c-1.5,0.3-2.9-0.4-4.3-1.1
					c-1.3-0.7-2.6-1.4-4.3-1.4c-0.6,0-1.2,0.1-1.8,0.3c-2.6-1.6-5.2-3.1-7.8-4.4c-0.7-0.5-1.7-0.9-2.8-1.3c-0.8-0.3-1.6-0.6-2.3-1
					l-0.3-0.2c-0.4-0.3-0.7-0.6-1-0.9l-0.2-0.2c-1.2-2.9-3.7-5.9-6.1-8.8c-2-2.4-3.9-4.7-5-6.8c-0.9-1.7-2-3.2-3-4.5
					c-0.4-0.5-0.8-1-1.1-1.5l-0.2-0.2h-1c-0.2-0.5-0.4-1-0.7-1.4h0.3l-0.2-0.7c-0.1-0.3-0.1-0.5-0.2-0.8c-0.1-0.7-0.3-1.4-0.7-2.1
					l-0.3-0.5c-4.3-7.1-8.6-14.4-14.9-20.3c-1-0.9-2.3-1.9-4-2c-0.6-1.2-1.3-2.2-2.2-3.1c-0.3-3.1-1.1-5.6-4-7.6
					c-2.9-1.9-4.8-5.1-5.5-9.5c-0.1-0.6-0.1-1.3-0.1-2c0-0.6,0-1.2-0.1-1.8c-0.2-2.1-0.4-10.1,0-13c0.3-2.5,0.2-5.2-3.3-6
					c-0.2-0.1-0.5-0.4-0.8-0.7c-0.1-0.1-0.3-0.3-0.4-0.4c-0.9-0.9-1.8-1.7-2.7-2.6c-2.1-2-4.3-4.1-6.5-6.1c-0.8-0.7-1.8-1.2-2.7-1.5
					c-1.8-2-3.8-3.6-5.9-5c-1.8-1.2-3.6-1.9-5.3-2.2c-0.3-0.7-0.7-1.4-1.3-2.1c-0.8-0.9-1.3-2.3-1.4-3.4c-0.1-2.4,0-5,0.1-7.4
					l0.1-0.9c0-0.3,0.1-0.7,0.3-1.1c0.2-0.5,0.3-1.1,0.3-1.7c0-0.3,0-0.6,0.1-0.9c0.1-0.5,0.2-1,0-1.7l-0.2-0.7l-0.6,0.4
					c-0.8,0.5-0.8,0.5-3.4,3c-0.5,0.4-0.9,0.6-1.3,0.7c-0.4,0.1-0.9,0.3-1.5,0.8c-0.2-0.5-0.2-0.8-0.2-0.9l0.4-0.7l0.4-0.6
					c0.4-0.5,0.9-1.1,1-1.9c4.8-8.2,10.4-16.6,17.3-26.4l0.3-0.4c0.2-0.3,0.5-0.6,0.7-0.9l0.3-0.6h-0.1l0.2-0.3
					c0.4-0.5,0.8-1.1,1.1-1.6c1.4-0.2,2.7-0.7,3.9-1.1c0.9-0.3,1.8-0.7,2.8-0.9c0.7-0.2,1.5-1.1,1.6-1.8c0.7-5.2,4.6-7.6,8.9-9.7
					c3.8-1.9,7.5-4.1,11-6.2l0.3-0.2c0.6-0.4,1.2-0.7,1.9-1c2.2-1.1,4.6-2.3,6.1-5.1l0.5-0.9h-0.2c2.6-1.8,4.3-4.7,4.7-8.2
					c0.7-0.8,1.3-1.8,1.7-3c2.3-0.9,4.3-2.6,5.5-4.7l2.1-3.5c26.9-12,58.2-20,90.7-23c0.4,0.3,0.8,0.5,1.2,0.6
					c7,2,14.5,1.9,21.6,1.8c1.5,0,2.9,0,4.4,0c1.6,0,2.9-0.9,3.5-2.4c9.2,0.9,18.1,1.6,27.2,1.6c0.5,0.8,1.2,1.4,2.2,1.7
					c4.3,1.3,8.7,1.4,12.9,1.6c1.7,0.1,3.5,0.2,5.3,0.3c6.2,0.5,12.3,2,17.6,3.3c1.3,0.3,2.6,0.7,3.9,1c9.3,2.4,18.9,4.8,28.6,5.3
					c0.3,0.6,0.6,1.1,1,1.7c-1.2-0.4-2.5-0.7-3.7-0.9c-0.8-0.2-1.6-0.4-2.3-0.6c-0.7-0.2-1.3,0.1-2.2,0.5c-0.4,0.2-0.9,0.4-1.4,0.6
					l-1.6,0.6l1.7,0.5c3.1,0.9,5.9,2.2,8.6,3.6c1.9,0.9,3.8,1.8,5.7,2.6c0,0.4,0,0.8,0,1.2c-0.2-0.1-0.4-0.1-0.6-0.2l-0.9-0.4
					l0.7,3.8c0.4,2,0.7,3.7,1,5.3c0.6,3,0.7,5-2.4,6.4l-1.1,0.5l1.1,0.5c2.2,1,4.2,0.9,5.8,0.7c0.4,0.8,0.9,1.6,1.3,2.3h-0.6
					l0.4,0.7c2.7,5.5,5.1,10.3,10.9,12.3c1.3,0.4,3.1,1,3.7,2c0.9,1.5,2.1,2.6,3.3,3.8c1.7,1.7,3.4,3.3,4,5.6
					c0.1,0.4,0.4,0.9,0.8,1.3c-0.1,0.6-0.1,1.1,0.1,1.6c0,0.1,0,0.2,0.1,0.2c-0.5,0.3-0.9,0.8-1.1,1.2c-0.4,0.9-0.5,2.2-0.2,3.1
					c1.2,3.2,2.4,6,3.6,8.6c0.7,1.4-0.4,2.3-1.9,3.2c-0.4,0.3-0.8,0.5-1,0.7c-1,1.4-0.6,3.3-0.2,5.1c0.3,1.7,0.6,3.3-0.1,4.2l0,0
					c-2,0-2.5,1-3.2,2.5c-0.4,0.9-0.9,2-1.8,3.3l-0.2,0.3l0.2,0.3c0.2,0.3,0.4,0.6,0.7,0.9c0.6,0.7,1.1,1.5,1.6,2.3
					c0.2,0.3,0.4,0.7,0.5,1c0.1,0.6,0.3,1.2,0.5,1.6c-0.1,2.6-0.4,5.3-0.9,8.2c-0.2,1-0.5,1.7-0.9,1.9c-0.5,0.2-1.2,0.1-2.3-0.4
					c-0.7-0.3-1.3-0.7-2-1.1c-0.8-0.5-1.6-1-2.5-1.4s-1.8-0.3-2.5,0.3s-1,1.5-0.9,2.4c0.4,2.1,3.9,5.2,6.2,5.2c0.1,0,0.1,0,0.2,0
					c-0.1,0.3-0.1,0.5-0.1,0.8c0,1.1,0.5,2.1,1.1,2.7c0,0,0,0,0.1,0.1l-0.1,2.5c-0.1-0.1-0.2-0.2-0.2-0.3
					C1073.7,896,1073.1,895.3,1072.6,894.6z M880.5,785.6c0,0.4-0.1,0.7-0.3,1.1c0,0.1-0.1,0.2-0.2,0.4l-0.6,0.9
					c-3.1,0.6-8.3,1.4-12.6,2c-3.7,0.5-6.9,1-8.5,1.3c-0.5,0.1-9.6,2-10.6,2.7l-0.3,0.2c0.1-0.1,0.2-0.2,0.3-0.3
					c1-1,2.4-1.7,3.9-2.4l0.2-0.1c1.5-0.7,3-1.4,4.6-2c1.9-0.8,3.8-1.6,5.7-2.5c0.6-0.3,1.2-0.6,1.7-0.9c3.7-1.9,7.2-3.6,11.3-3.6
					c0.6,0,1.1,0,1.7,0.1c0.3,0,0.5,0,0.8,0.1c0.5,0,1,0,1.3,0.2c0.4,0.2,0.9,0.7,1.1,1.2l0.1,0.3c0.1,0.2,0.2,0.4,0.3,0.6
					L880.5,785.6z M840.1,798.4c-1.4,0.6-3,1-4.6,1.2c0.6-1,1.4-1.2,2.4-1.2c0.2,0,0.4,0,0.6,0C839.1,798.4,839.6,798.4,840.1,798.4
					z M1075.6,908.2c-0.4,0.1-1.1,0.3-2-0.1c-1.7-0.7-9.1-5.6-9.6-6.5c-0.6-1-1.5-4.1-1.5-4.8c0.3-0.4,2.7-0.6,3.6-0.6h0.3h0.1
					c1.3,0,4.5,1.6,5.6,2.2l0,0c1,0.4,2.8,1.3,3.1,1.5C1075.6,900.3,1075.7,904.4,1075.6,908.2z"/>
				<path class="st2" d="M1070.4,819l0.9,0.2c1.3,0.3,2.9,0.6,4.2,0.6c1.2,0,2.1-0.2,2.6-0.9l0.1-0.1v-6.9l-0.2-0.2
					c-0.2-0.2-4.7-4.8-7.7-3.3c-1.9,0.9-2.4,4.2-2,7C1068.4,816.3,1068.9,818.7,1070.4,819z M1070.7,809.3c0.3-0.1,0.6-0.2,0.9-0.2
					c1.9,0,4.3,2,5.4,3.1v6.1c-0.8,0.8-3.9,0.2-5.6-0.2l-0.9-0.2c-0.5-0.1-1.1-1.1-1.3-2.8C1069,812.8,1069.4,810,1070.7,809.3z"/>
				<path class="st2" d="M811.2,876.8L811.2,876.8c-0.1,0-8.4,2.1-10.7,2c-0.8-0.1-1.2,0.3-1.4,0.6c-0.5,0.8,0,2.1,0.3,2.6
					c0.5,0.9,1.4,2.1,2.4,2.1c1.4,0,5.5,1.7,5.8,2.5c0.2,0.8,1,1,2,1c0.9,0,2.1-0.2,3.2-0.4c0.4-0.1,0.9-0.2,1.2-0.2
					c2.2-0.3,7.1-1.1,7.1-1.1l0.9-0.2l-0.6-0.7C820.4,883.4,814.1,876.2,811.2,876.8z M814,885.8c-0.4,0.1-0.8,0.1-1.3,0.2
					c-1.2,0.2-3.8,0.7-4,0.1c-0.5-1.6-5.3-3.3-6.8-3.3c-0.3,0-0.9-0.5-1.4-1.5c-0.4-0.8-0.5-1.3-0.4-1.5c0,0,0.1-0.1,0.3-0.1h0.1
					c2.4,0.2,10.6-1.9,11-2c1.6-0.4,5.9,3.8,8.7,7C818.6,885.1,815.6,885.6,814,885.8z"/>
				<path class="st2" d="M1099.1,889c0,0.6,0.6,1.2,1.6,1.7c0.5,0.2,1,0.3,1.5,0.3c0.4,0,0.9-0.1,1.2-0.4c0.3-0.3,0.6-0.8,0.2-1.8
					c-0.6-1.5-0.4-1.6,1-2.2c0.4-0.1,0.7-0.3,1.2-0.5c0.8-0.4,0.9-0.9,0.9-1.2c0-1.3-1.9-2.5-2.3-2.7l-0.2-0.1
					c-2.1-0.2-3.6,0.2-4.5,1.2c-1.3,1.4-0.8,3.6-0.6,4.9C1099.1,888.6,1099.1,888.8,1099.1,889z M1100.4,884.1
					c0.5-0.6,1.4-0.9,2.7-0.9c0.2,0,0.5,0,0.8,0c0.8,0.5,1.7,1.3,1.7,1.6c0,0.1-0.3,0.3-0.3,0.3c-0.4,0.2-0.8,0.3-1.1,0.5
					c-1.3,0.5-2.6,1-1.6,3.6c0.1,0.4,0.1,0.6,0.1,0.6c-0.1,0.1-0.5,0.2-1.1,0c-0.8-0.2-1.3-0.6-1.3-0.8s-0.1-0.6-0.1-1
					C1099.8,886.9,1099.5,885.1,1100.4,884.1z"/>
				<path class="st2" d="M1086.6,878.9l0.2,0.1c0.3,0.2,2.3,1.6,4,1.6c0.3,0,0.6,0,0.9-0.2c0.5-0.2,1.1-0.7,1.3-1.8
					c0.5-2.6,0.2-6.1,0.1-8.2c0-0.7-0.1-1.2-0.1-1.6c0-0.7,0-2.2-1.1-2.6c-0.9-0.4-2.3,0.3-4.2,2.2l-0.1,0.1
					c-0.5,0.6-2.1,2.8-2.1,3.9c0,1,0.9,5.7,1,6.2L1086.6,878.9z M1088.5,869.3c2.2-2.2,2.9-2,3-2s0.4,0.3,0.4,1.6
					c0,0.4,0,0.9,0.1,1.7c0.1,2,0.4,5.5-0.1,7.9c-0.1,0.8-0.5,0.9-0.6,1c-0.9,0.4-2.6-0.5-3.7-1.2c-0.3-1.6-0.9-5.1-0.9-5.8
					C1086.6,872,1087.6,870.4,1088.5,869.3z"/>
				<path class="st2" d="M1080.8,908.2c-0.5-0.2-1.1-0.1-1.5,0.1c-1.8,1-2,2.8-2,2.9v0.2l0.1,0.2c0.1,0.2,2.7,4.1,5.4,4.8
					c0.7,0.2,1.2,0.3,1.7,0.3c0.6,0,1-0.1,1.3-0.5c0.5-0.7,0.1-1.8-0.4-2.8C1084.4,911.2,1082.5,908.7,1080.8,908.2z M1085,915.4
					c0,0-0.2,0.2-1.9-0.2c-2-0.5-4.1-3.4-4.6-4.1c0.1-0.4,0.4-1.3,1.4-1.8c0.2-0.1,0.4-0.1,0.7,0c1.3,0.4,3,2.6,4,4.5
					C1085.2,915.2,1085,915.4,1085,915.4z"/>
			</g>
			<path id="lineas_8_" class="st1" d="M1179.9,917.1h-11.7c0.5-4,0.8-8,0.8-12c0-4.8-0.4-9.6-1.1-14.3h10.9c0.1,0,0.1,0,0.1-0.1
				c-0.1-0.3-0.1-0.7-0.2-1h-11.1c-1.5-9.1-4.4-17.8-8.5-26.3h11.8c0.3,0,0.5-0.2,0.5-0.5c-0.1-0.2-0.2-0.4-0.3-0.5
				c-0.1,0-0.1-0.1-0.2-0.1h-12.4c-4.6-9.2-10.7-18-18-26.3h11c0.3,0,0.5-0.2,0.5-0.5s-0.2-0.5-0.5-0.5h-12
				c-8.6-9.5-19-18.4-30.8-26.3h7.4c0.3,0,0.5-0.2,0.5-0.5s-0.2-0.5-0.5-0.5h-9.1c-24.3-16-54.5-28.2-88.3-35.3
				c-21.4-4-44.1-6.2-67.6-6.2c-15.3,0-30.2,0.9-44.7,2.7c-42,5.9-79.5,19.6-108.5,38.8h-9.8c-0.6,0.4-1.2,0.7-1.8,1.1h9.9
				c-11.8,7.9-22.1,16.8-30.8,26.3h-11.9c-0.4,0.4-0.7,0.7-1.1,1.1h12c-7.3,8.3-13.4,17.1-18,26.3h-13.2c-0.2,0.4-0.4,0.7-0.6,1.1
				h13.2c-4.1,8.4-7,17.2-8.5,26.3h-13.7c-0.1,0.4-0.1,0.7-0.2,1.1h13.7c-0.7,4.7-1.1,9.5-1.1,14.3c0,4,0.3,8,0.8,12H723
				c0.1,0.4,0.1,0.7,0.2,1.1h13.7c1.3,9,4,17.8,7.8,26.3h-13.3c0.2,0.4,0.4,0.7,0.5,1.1h13.2c4.3,9.2,10.1,18,17.1,26.3h-12.1
				c0.3,0.4,0.7,0.7,1,1.1h12.1c8.2,9.5,18.1,18.3,29.5,26.3h-10.1c0.6,0.4,1.1,0.7,1.7,1.1h10c15,10.4,32.5,19.3,51.8,26.3h-6.2
				c1.1,0.4,2.2,0.7,3.3,1.1h6c17.5,6.1,36.3,10.7,56.3,13.6c14.7,1.8,30,2.8,45.6,2.8c23.9,0,46.9-2.2,68.5-6.3
				c12.5-2.6,24.6-6,36-10h6.6c0.3,0,0.5-0.2,0.5-0.5s-0.2-0.5-0.4-0.5h-3.7c19.3-7,36.8-15.9,51.8-26.3h9.6c0.3,0,0.5-0.2,0.5-0.5
				s-0.2-0.5-0.5-0.5h-8c11.3-8,21.2-16.8,29.5-26.3h10.9c0.3,0,0.5-0.2,0.5-0.5s-0.2-0.5-0.5-0.5h-10c7-8.3,12.8-17.1,17.1-26.3
				h11.6c0.1,0,0.1,0,0.2-0.1c0.1-0.2,0.2-0.4,0.3-0.6c-0.1-0.2-0.2-0.4-0.5-0.4H1160c3.9-8.5,6.5-17.3,7.8-26.3h11.9
				c0.1,0,0.3-0.1,0.4-0.1c0-0.2,0.1-0.4,0.1-0.6C1180.3,917.2,1180.1,917.1,1179.9,917.1z M1166.6,889.7h-29.1
				c-1.3-9-3.8-17.8-7.3-26.3h27.8C1162.1,871.9,1165,880.7,1166.6,889.7z M917.6,917.1c-0.1-4-0.1-7.9-0.1-12
				c0-4.8,0.1-9.6,0.2-14.3h70c0.1,4.7,0.2,9.5,0.2,14.3c0,4-0.1,8-0.1,12H917.6z M987.6,918.2c-0.2,9-0.7,17.8-1.3,26.3h-67.4
				c-0.6-8.5-1.1-17.2-1.3-26.3H987.6z M987.2,863.4h48.3c1.7,8.4,2.9,17.2,3.5,26.3h-50.4C988.4,880.7,987.9,871.9,987.2,863.4z
				 M987.6,889.7h-69.9c0.3-9.1,0.7-17.8,1.4-26.3h67.1C986.8,871.9,987.3,880.7,987.6,889.7z M916.6,889.7h-50.4
				c0.6-9.1,1.8-17.8,3.5-26.3H918C917.3,871.9,916.8,880.7,916.6,889.7z M916.5,890.8c-0.1,4.7-0.2,9.5-0.2,14.3c0,4,0.1,8,0.1,12
				H866c-0.2-4-0.3-7.9-0.3-12c0-4.8,0.2-9.6,0.5-14.3H916.5z M916.5,918.2c0.2,9,0.7,17.8,1.3,26.3h-48.6
				c-1.6-8.5-2.7-17.2-3.2-26.3H916.5z M917.9,945.6c0.7,9.2,1.7,18,2.9,26.3h-44.3c-2.9-8.3-5.2-17.1-7-26.3H917.9z M919,945.6
				h67.3c-0.7,9.2-1.7,18-2.8,26.3h-61.6C920.6,963.6,919.7,954.8,919,945.6z M987.3,945.6h48.5c-1.8,9.2-4.1,18-7,26.3h-44.3
				C985.6,963.6,986.6,954.8,987.3,945.6z M987.4,944.5c0.6-8.5,1.1-17.3,1.3-26.3h50.5c-0.5,9-1.6,17.8-3.2,26.3H987.4z
				 M988.7,917.1c0.1-4,0.1-7.9,0.1-12c0-4.8-0.1-9.6-0.2-14.3h50.4c0.3,4.7,0.5,9.5,0.5,14.3c0,4-0.1,8-0.3,12H988.7z
				 M1036.7,863.4h51.7c2.7,8.4,4.7,17.2,5.7,26.3h-54C1039.5,880.7,1038.3,871.9,1036.7,863.4z M1036.4,862.3
				c-1.9-9.2-4.4-18-7.3-26.3h46.8c4.9,8.3,9,17.1,12.1,26.3H1036.4z M1035.3,862.3h-48.2c-0.8-9.2-1.8-18-3-26.3h43.8
				C1030.9,844.3,1033.4,853.1,1035.3,862.3z M986,862.3h-66.9c0.8-9.2,1.8-18,3-26.3H983C984.3,844.3,985.3,853.1,986,862.3z
				 M918.1,862.3h-48.2c1.9-9.2,4.4-18,7.4-26.3h43.8C919.9,844.3,918.9,853.1,918.1,862.3z M868.8,862.3h-51.6
				c3.1-9.2,7.2-18,12.1-26.3h46.8C873.1,844.3,870.7,853.1,868.8,862.3z M868.6,863.4c-1.7,8.4-2.8,17.2-3.5,26.3h-54
				c1-9.1,3-17.8,5.7-26.3H868.6z M865,890.8c-0.3,4.7-0.5,9.5-0.5,14.3c0,4,0.1,8,0.3,12h-54.1c-0.4-4-0.6-7.9-0.6-12
				c0-4.8,0.3-9.6,0.8-14.3H865z M864.9,918.2c0.5,9,1.6,17.8,3.2,26.3h-52c-2.6-8.5-4.4-17.2-5.2-26.3H864.9z M868.3,945.6
				c1.8,9.2,4.1,18,7,26.3h-47.4c-4.7-8.3-8.6-17.1-11.5-26.3H868.3z M875.7,973c3.4,9.5,7.4,18.3,12,26.3h-39.3
				c-7.6-8-14.2-16.8-19.8-26.3H875.7z M876.8,973h44.1c1.4,9.5,3,18.3,4.9,26.3h-36.9C884.3,991.3,880.2,982.5,876.8,973z M922,973
				h61.3c-1.4,9.5-3,18.3-4.9,26.3h-51.5C925,991.3,923.3,982.5,922,973z M984.3,973h44.1c-3.4,9.5-7.4,18.3-12.1,26.3h-36.9
				C981.2,991.3,982.9,982.5,984.3,973z M1029.5,973h47.1c-5.5,9.5-12.2,18.3-19.8,26.3h-39.3C1022.1,991.3,1026.2,982.5,1029.5,973
				z M1029.9,971.9c2.9-8.3,5.2-17.1,7-26.3h51.9c-2.9,9.2-6.8,18-11.5,26.3H1029.9z M1037.1,944.5c1.6-8.5,2.7-17.3,3.2-26.3h54.1
				c-0.9,9-2.7,17.8-5.2,26.3H1037.1z M1040.3,917.1c0.2-4,0.3-7.9,0.3-12c0-4.8-0.2-9.6-0.5-14.3h54c0.5,4.7,0.8,9.5,0.8,14.3
				c0,4-0.2,8-0.6,12H1040.3z M1089.5,863.4h39.4c3.6,8.4,6.1,17.2,7.4,26.3h-41.2C1094.2,880.7,1092.3,871.9,1089.5,863.4z
				 M1089.1,862.3c-3.1-9.2-7.1-18-12-26.3h35.6c6.4,8.3,11.7,17.1,15.7,26.3H1089.1z M1076.5,834.9c-5.7-9.5-12.6-18.4-20.4-26.3
				h29c10.3,7.9,19.3,16.7,26.9,26.3H1076.5z M1075.3,834.9h-46.6c-3.5-9.5-7.7-18.4-12.5-26.3h38.4
				C1062.5,816.5,1069.5,825.4,1075.3,834.9z M1027.5,834.9h-43.6c-1.4-9.5-3.2-18.4-5.2-26.3h36.1
				C1019.7,816.5,1024,825.4,1027.5,834.9z M982.9,834.9h-60.6c1.4-9.6,3.2-18.4,5.1-26.3h50.4C979.8,816.5,981.5,825.4,982.9,834.9
				z M921.3,834.9h-43.6c3.5-9.6,7.8-18.4,12.6-26.3h36.1C924.5,816.6,922.7,825.4,921.3,834.9z M876.5,834.9h-46.6
				c5.8-9.6,12.8-18.4,20.7-26.3H889C884.3,816.6,880.1,825.4,876.5,834.9z M828.7,834.9h-35.4c7.5-9.6,16.6-18.4,26.9-26.3h29
				C841.3,816.6,834.4,825.4,828.7,834.9z M828,836c-4.9,8.3-8.9,17.1-12,26.3h-39.3c4-9.2,9.3-18,15.7-26.3H828z M815.7,863.4
				c-2.7,8.4-4.6,17.2-5.7,26.3h-41.2c1.3-9.1,3.8-17.8,7.4-26.3H815.7z M809.9,890.8c-0.5,4.7-0.7,9.5-0.7,14.3c0,4,0.2,8,0.6,12
				h-41.3c-0.5-4-0.7-7.9-0.7-12c0-4.8,0.3-9.6,1-14.3H809.9z M809.8,918.2c0.9,9,2.6,17.8,5.2,26.3h-39.7
				c-3.4-8.5-5.7-17.2-6.8-26.3H809.8z M815.3,945.6c2.9,9.2,6.7,18,11.3,26.3h-36c-6.1-8.3-11.1-17.1-14.9-26.3H815.3z M827.3,973
				c5.5,9.5,12,18.3,19.5,26.3h-29.6c-9.9-8-18.5-16.8-25.7-26.3H827.3z M847.9,1000.4c10,10.4,21.6,19.3,34.4,26.3h-18.1
				c-17-7-32.3-15.9-45.6-26.3L847.9,1000.4L847.9,1000.4z M849.4,1000.4h38.9c6.1,10.4,13.2,19.3,21.1,26.3h-24.9
				C871.4,1019.7,859.6,1010.8,849.4,1000.4z M889.6,1000.4h36.6c2.5,10.4,5.4,19.3,8.7,26.3H911
				C903,1019.7,895.8,1010.8,889.6,1000.4z M927.1,1000.4h51c-2.5,10.4-5.4,19.3-8.7,26.3h-33.7
				C932.5,1019.7,929.6,1010.8,927.1,1000.4z M979.1,1000.4h36.6c-6.2,10.4-13.4,19.3-21.4,26.3h-23.8
				C973.6,1019.6,976.5,1010.7,979.1,1000.4z M1016.9,1000.4h38.9c-10.2,10.4-22,19.3-35.1,26.3h-24.9
				C1003.6,1019.6,1010.7,1010.7,1016.9,1000.4z M1057.3,1000.4h29.3c-13.2,10.4-28.6,19.3-45.6,26.3h-18
				C1035.8,1019.6,1047.3,1010.7,1057.3,1000.4z M1058.4,999.3c7.5-8,14.1-16.8,19.5-26.3h35.8c-7.2,9.5-15.8,18.3-25.7,26.3H1058.4
				z M1078.5,971.9c4.7-8.3,8.5-17.1,11.3-26.3h39.6c-3.8,9.2-8.8,18-14.9,26.3H1078.5z M1090.2,944.5c2.6-8.5,4.3-17.3,5.2-26.3
				h41.3c-1.1,9-3.5,17.8-6.8,26.3H1090.2z M1095.5,917.1c0.3-4,0.6-7.9,0.6-12c0-4.8-0.3-9.6-0.7-14.3h41.2c0.6,4.7,1,9.5,1,14.3
				c0,4-0.3,8-0.7,12H1095.5z M1157.4,862.3h-27.7c-4-9.2-9.2-18-15.5-26.3h25C1146.6,844.3,1152.7,853.1,1157.4,862.3z
				 M1138.1,834.9h-24.8c-7.4-9.5-16.3-18.4-26.5-26.3h20C1118.8,816.5,1129.3,825.4,1138.1,834.9z M1105.2,807.5h-19.8
				c-23.7-18.2-54-31.5-88-37.9C1039.1,775.4,1076.3,788.8,1105.2,807.5z M1083.7,807.5H1055c-19.9-19.7-45.6-33.7-74.5-39.3
				C1020.5,772.8,1056.4,787,1083.7,807.5z M1053.5,807.5h-38c-12.9-20.9-29.9-35.4-48.9-40.2
				C1000.4,770.5,1030.8,785.3,1053.5,807.5z M1014.2,807.5h-35.7c-5.5-21.6-12.8-36.3-20.9-40.6
				C979.7,768.9,999.6,784,1014.2,807.5z M952.6,766.7c9.7,0,18.6,15.6,24.9,40.9h-49.9C934.1,782.3,942.9,766.7,952.6,766.7z
				 M926.7,807.5H891c14.7-23.5,34.6-38.7,56.7-40.6C939.5,771.2,932.2,785.9,926.7,807.5z M889.7,807.5h-38
				c22.7-22.2,53.1-37,87-40.2C919.6,772.1,902.6,786.6,889.7,807.5z M850.2,807.5h-28.6c27.3-20.6,63.1-34.7,103.2-39.3
				C895.8,773.8,870,787.8,850.2,807.5z M907.7,769.7c-34,6.3-64.2,19.7-88,37.9H800C829,788.8,866.1,775.4,907.7,769.7z
				 M798.3,808.6h20c-10.1,7.9-19,16.8-26.5,26.3H767C775.9,825.4,786.4,816.5,798.3,808.6z M766.1,836h25
				c-6.3,8.3-11.5,17.1-15.5,26.3h-27.7C752.5,853.1,758.6,844.3,766.1,836z M747.3,863.4h27.8c-3.5,8.4-6,17.2-7.3,26.3h-29.1
				C740.2,880.7,743.1,871.9,747.3,863.4z M737.3,905.1c0-4.8,0.4-9.6,1.1-14.3h29.1c-0.6,4.7-1,9.5-1,14.3c0,4,0.3,8,0.7,12H738
				C737.6,913.1,737.3,909.1,737.3,905.1z M738.3,918.2h29.1c1.1,9,3.4,17.8,6.7,26.3h-28C742.3,936,739.6,927.2,738.3,918.2z
				 M746.7,945.6h27.9c3.7,9.2,8.7,18,14.7,26.3h-25.2C756.9,963.6,751.1,954.8,746.7,945.6z M765,973h25.1
				c7.1,9.5,15.6,18.3,25.3,26.3h-20.5C783.4,991.3,773.4,982.5,765,973z M796.5,1000.4h20.3c12.9,10.4,28,19.3,44.6,26.3h-11.8
				C829.8,1019.7,811.9,1010.8,796.5,1000.4z M852.8,1027.7h11.1c13.7,5.6,28.4,9.9,43.8,12.8
				C888.3,1037.9,869.9,1033.5,852.8,1027.7z M866.9,1027.7h17.3c12.5,6.6,26.1,11.5,40.5,14.2
				C904.1,1039.6,884.7,1034.7,866.9,1027.7z M886.7,1027.7h24c8.6,7.4,18,12.6,28,15.1C920,1041.1,902.5,1035.8,886.7,1027.7z
				 M912.3,1027.7h23c3.8,7.9,7.9,13.2,12.3,15.6C935,1042.2,923,1036.7,912.3,1027.7z M936.3,1027.7h32.6
				c-4.9,10.1-10.4,15.8-16.3,15.8C946.7,1043.6,941.2,1037.8,936.3,1027.7z M969.9,1027.7h23c-10.7,8.9-22.6,14.4-35.3,15.6
				C962,1041,966.1,1035.6,969.9,1027.7z M994.6,1027.7h24c-15.8,8.1-33.4,13.4-52,15.1C976.5,1040.4,986,1035.2,994.6,1027.7z
				 M1021,1027.7h17.3c-17.8,7-37.2,11.9-57.7,14.2C994.9,1039.2,1008.5,1034.4,1021,1027.7z M997.5,1040.5
				c15.5-2.9,30.2-7.2,43.8-12.8h11.1C1035.3,1033.5,1016.9,1037.9,997.5,1040.5z M1055.6,1026.7h-11.8c16.6-7,31.6-15.9,44.6-26.3
				h20.3C1093.3,1010.8,1075.4,1019.7,1055.6,1026.7z M1110.3,999.3h-20.5c9.7-8,18.2-16.8,25.3-26.3h25.1
				C1131.8,982.5,1121.8,991.3,1110.3,999.3z M1141.1,971.9h-25.2c6-8.3,11-17.1,14.7-26.3h27.9
				C1154.1,954.8,1148.3,963.6,1141.1,971.9z M1159,944.5h-28c3.3-8.5,5.6-17.3,6.7-26.3h29.1C1165.6,927.2,1162.9,936,1159,944.5z
				 M1167.1,917.1h-29.2c0.5-4,0.7-7.9,0.7-12c0-4.8-0.3-9.6-1-14.3h29.1c0.8,4.7,1.1,9.5,1.1,14.3
				C1167.9,909.1,1167.6,913.1,1167.1,917.1z"/>
		</g>
		<g>
			
				<linearGradient id="SVGID_1_" gradientUnits="userSpaceOnUse" x1="945.1277" y1="-168.616" x2="961.8897" y2="1025.6733" gradientTransform="matrix(1 0 0 -1 0 1080)">
				<stop  offset="0" style="stop-color:#A0A0A0"/>
				<stop  offset="0.1837" style="stop-color:#B2B2B2"/>
				<stop  offset="0.4373" style="stop-color:#C5C5C5"/>
				<stop  offset="0.7033" style="stop-color:#CFCFCF"/>
				<stop  offset="1" style="stop-color:#D3D3D3"/>
			</linearGradient>
			<path class="st3" d="M1439.2,252.7c4.9-9.2,11.8-14,15.3-26.3c0,0-37,26-55.7,33.8c7.3-3.5,27.7-17.2,59.3-69
				c0,0-65.9,41.6-79.3,46.8c5-4,20.5-23.2,32.8-35.7c10.2-10.3,28.9-32.2,33.9-54.1c0,0-81.5,58.3-98.3,71.5
				c0,0,27.9-46.3,45.5-56.7c17.5-10.4,33.2-47.8,43.9-74.1c0,0-25,20.9-41.5,28.8c-6.7,3.2-16.3,16.2-29.2,26.8
				c-32.3,26.7-76.9,62.7-87.9,67.8c12.2-18.5,43.8-35.8,62.3-69c11.4-20.5,20.3-20.4,25.6-36.3c11.4-33.9,15-63.3,15-63.3
				s-11.1-2.8-20.1,20.8c-26.2,68.7-66.1,84-83,100.7c16.9-23.9,60.4-94.6,28.6-148.8c0,0-18.9,36.3-29.6,93
				c-6.1,32.7-18.7,47.9-29.6,67.8c-13.7,25.2-10,38.2-41.8,72.1c-62,66.1-130.5,143.9-210.7,192.3c-26.1,15.7-26.8,14.5-31.7,23.6
				c0,0-18.6-13.3-24.7-20c-15.4-17-39.9-59.3-84.6-46.2c-25,7.3-29.8,13.1-30.4,48.4l0.1,1.5c0,0.3,0.8,8.2,7,8.5
				c0.1,0,0.1,0,0.2,0c4.4,0,16.9-7.3,21.7-10.1c2.7-1.6,2.7-1.6,3-1.2l0.3,0.4l-0.3,0.4c-1.2,1.3-2.9,2.8-4.8,4.3
				c-5.6,4.8-12.5,10.7-11.6,16.1c0.5,2.7,10.9,1.3,14.3,0.8c2.5-0.3,2.7-0.4,2.8,0.2c0.1,0.5-0.4,0.7-0.9,0.9
				c-3.1,1.1-6.2,2.4-8.5,3.6c2,0.6,5.4,6.2,1.1,17.3l-17.1-8c-16.6,10.2-16.8,11.6-16.7,14.9c0,0.6,0,1.2,0,2
				c-0.1,0.9-0.7,1.7-1.7,2c-0.4,0.1-0.9,0.2-1.4,0.2c-1.6,0-3.5-0.7-4.8-2.2c-3.7-4.5-3.1-7.5-2-9.3c2.7-4.2,5.4-9.4,7.8-14.6
				C783.1,463.9,660,478.9,668.9,366c0,0-12.3,15.5-12.3,21.8c0,0-10.2-9.9-11-46.9c0,0-10.2,29.4-11.6,44.3
				c0,0-18.3-23.3-19.1-48.5c-0.4-14.2-6.9-35.3-6.7-51.1c0,0-30.4,29.6-11.3,80c-5.8-14.6-22.7-48.7-27.1-73.7
				c-2.8-15.7-3.8-16.3-5.5-21.9c-2.2-7.1,1.6-14.1-1.4-20.1c-11.6-23.6-19.7-44.7-30.2-33.9c-15.2,15.8,25,94.4,33.3,120
				c0,0-14.2-15.6-35.7-59.7c-5.5-11.4-15.3-46.6-30.9-65.2c-20.9-24.8-32.9-40.9-34.3-40.2c-8.6,4.1,3.5,12.5,6.3,48.9
				c1,13.1,3.2,27,17.1,55.7c5.3,10.9,11.1,18.2,25.5,41.3c7.4,11.9,18.2,37,38.8,50.4c16.8,10.9,37.2,41,57.7,52.6
				c28.7,16.1,105.3,55.3,132.3,72.5c8.5,5.4,29.5,23.6,46.2,37c13.6,11,23,23.2,34.9,28.6c13,5.9,11.4,12.2,29.9,11.2
				c0,0,7.5,8.3,10.5,30.7c2.1,15.5,11.8,24.4,18.9,36c6.5,10.4,9.7,20.4,20.2,32.6c0,0,15,76.2,3.2,85.7c0,0-41-2.1-63.8,19.2
				c0,0-31.3-8.4-37.8,0.8c0,0-6.8,10.8-6.3,12.6c1.1,3.9,7.9-9.5,14.2-7.9c0,0,14.7,2.4,25.8,1.6c1.1-0.1,4.7,6.6,0.5,6
				c-15.8-2.1-24.1,14.6-20.8,24.7c1.4,4.2,4.7-7.1,10.2-14.2c0,0,7.1,3.2,17.3-3.2c0,0,20.9-20.2,35.1-13.9c0,0,13.6,7.1,12.4,17.3
				c-0.6,5-1,7.5-1.2,8.7c1.6-1.7,6.7-6.4,11.3-1.8c5.5,5.5,9.5,2.6,3.7,15c-1.2,2.5,2,3,6,0.5c5.6-3.5,13.7-10,17.1-11.6
				c9.1-4.3,9.8-13.9,27.9-24.3c7-4,20.2-8.8,32.1,12.5c0,0,17.3,2.4,12.6,13.4c0,0-3.9,19.7,6.3,0c0,0,11.8-17.3-10.2-25.2
				c0,0-19.7-11-15.8-14.2l22.9,4.7c-0.6-2.9,0.3-4.4,3.9-3.9c98.2,15.7,170.5,69.9,170.5,134.4c0,60.5-63.6,111.9-152.4,131
				c1.3,5.2,6.4,21.6,18.9,22.9c0,0,7.9,7.1,21.3-9.5s9.5-5.5,11.8,0c0,0,2.4,14.2,10.2,14.2c7.9,0,18.1-29.2,18.1-29.2
				s8.7,18.9,14.2,18.9s13.4-18.1,18.9-32.3s12.6,11.8,12.6,11.8s5.5,17.3,16.6,15c11-2.4,7.1-25.2,7.1-25.2s-7.9-30.7,13.4-8.7
				c21.3,22.1,22.9-10.2,22.9-10.2l-1.6-28.4l28.4,19.7c0,0,25.2,12.6,22.1-13.4c-1.7-14.2-2.5-19-2.9-20.4
				c2.2,0.4,16.7,2.9,21.8,2.3c4.7-0.5,7.9-2.8,12.6-14.2c1.9-4.6,9.5-1.6,7.9-18.1c0,0,6.9-17.7-5.3-31c-2-2.1-7.3-16.3,2.1-14.8
				c0,0,34.3,6.3,13.9-42.5c-5.4-12.9-21.5-16.2-23.8-21.8c-2.8-6.7,11.8-15-13.4-25.6c0,0-129.7-63.9-154.1-89.9
				c0,0-37.8-70.2-44.1-70.2c0,0,0.8-6.3,18.9,3.9c0,0,36.3,20,42.8,21.8c5.8,1.6-29.2-27.6,8.4-22.6c7.1,0.9,26.8,10.2,26.8,10.2
				s2.6-6-6-23.4c0,0-5.2-8.3,25.8-1.1c5.2,1.2,18.1,6.3,21.3,1.6c3.2-4.7-2.5-20.7,9.2-18.7c4.5,0.8,17.6,7.8,17.6,4.5
				c0-1.2-2.7-23.5-4.9-27.1c3,1.5,15.5,6.4,29.9,10.5c6.1,1.8,10.7,4.5,7.1-18.9c-2.1-13.7,0.3-13.1,6.7-10.4
				c0,0,22.8,11.2,20.8,7.3c-1.1-2.1-4.9-17.9-7.4-24.2c0,0,7.3-0.5,33.4,5.8c0,0,1.3-5.5-13.1-26.5c0,0-11.7-15,12.3-1.6
				c0,0,19.8,16.6,14.5-6.3c0,0,7.3-7.9,2.5-18.1c0,0-10.4-37-36.4-39.4c0,0-20.5-6.3-22.1-12.6c0,0,10.3,1.7,20.1,2.6
				c6,0.5,10-0.1,16.8,0.9c11.2,1.5,25.4,0.8,46.7-23.1c0,0-8.7-8.9-35.5-10.5c0,0-43.6-5.3-46.8-10c0,0,21,2.7,67.3-17.3
				c9.1-3.9,21.5-7.2,32.8-13.1c9.7-5,17.8-12.6,31.2-16.9c7.7-2.5,8.9-8.6,18-14.1l-69.9,10c0,0,59.9-31.5,66.7-53.6
				c0,0,19.4-29.4-5.3-14.7c0,0-33.6,13.7-36.8,14.2C1390.9,304.7,1423.4,282.2,1439.2,252.7z M870.2,437.4
				c-3.6,3.1-8.3,3.4-10.6,0.7c-2.3-2.7-1.2-7.3,2.3-10.4c0.3-0.3,0.8-0.4,1-0.4l0,0c-0.4,0.5-0.7,1.1-0.7,1.8
				c0,1.5,1.2,2.7,2.7,2.7s2.7-1.2,2.7-2.7s-1.2-2.6-2.6-2.7c-0.1,0,0,0,0,0c2.9-1.2,5.9-1.4,7.6,0.6
				C874.8,429.7,873.8,434.3,870.2,437.4z M981.5,750.1c0,0-16,6.8-21.5,8.4c-19,5.6-17.5,20.4-25.4,20.8c-7.5,0.4-9,3.1-12.5,3.1
				c-12-0.1-21.2,4.5-20.8,1.8c0.3-2.2-3.4-4.9-4.5-6.6c-6.5-10.2,7.5-12.7,11.3-11.3c4.6,1.6,5.9,4.3,9.5,4.2s-1.1-4.2,0-4.5
				c13.4-2.8,18.4-5,22.1-9.7c9.9-12.6,5-42,5-42c-1.3-7.9,3.2-3.9,3.2-3.9c4.7,8.1,36.8,36.5,36.8,36.5
				C986.1,748.2,981.5,750.1,981.5,750.1z"/>
			
				<linearGradient id="SVGID_2_" gradientUnits="userSpaceOnUse" x1="818.2281" y1="-78.8937" x2="834.9901" y2="1115.3958" gradientTransform="matrix(1 0 0 -1 0 1080)">
				<stop  offset="0" style="stop-color:#ADADAD"/>
				<stop  offset="6.646621e-02" style="stop-color:#B2B2B2"/>
				<stop  offset="0.3565" style="stop-color:#C5C5C5"/>
				<stop  offset="0.6608" style="stop-color:#CFCFCF"/>
				<stop  offset="1" style="stop-color:#D3D3D3"/>
			</linearGradient>
			<path class="st4" d="M806.8,497.9c1.3,1.6,3.6,2.1,5,1.7c0.6-0.2,0.9-0.5,1-1c0-0.7,0-1.3,0-1.9c-0.1-4.6-0.2-5.7,29.2-23.1
				c0.1,0,4.3-2.4,9.3-4.4c-6.9,0.8-13,1-13.5-2c-1-6,6.2-12.2,12-17.1c0.4-0.4,0.8-0.7,1.2-1.1c-6,3.5-16.5,9.3-20.6,9.2
				c-5-0.2-6.9-4.7-7.6-7.4c-2.3,6.3-9.9,26.8-17.9,39.2C803.5,492,804.2,494.8,806.8,497.9z"/>
		</g>
	</g>
</g>
</svg>
